<svg xmlns="http://www.w3.org/2000/svg" xmlns:xlink="http://www.w3.org/1999/xlink" width="500" zoomAndPan="magnify" viewBox="0 0 375 374.999991" height="500" preserveAspectRatio="xMidYMid meet" version="1.2"><defs><clipPath id="15b4d4189e"><path d="M 246 124 L 265 124 L 265 139 L 246 139 Z M 246 124 "/></clipPath><clipPath id="199ef199c5"><path d="M 265.800781 127.292969 L 263.25 141.195312 L 246.363281 138.09375 L 248.914062 124.195312 Z M 265.800781 127.292969 "/></clipPath><clipPath id="cb112b9142"><path d="M 264.527344 134.242188 L 246.363281 138.097656 L 248.914062 124.195312 Z M 264.527344 134.242188 "/></clipPath><clipPath id="ab3b038d4f"><path d="M 0.238281 0.078125 L 18.71875 0.078125 L 18.71875 14.238281 L 0.238281 14.238281 Z M 0.238281 0.078125 "/></clipPath><clipPath id="5f62635f7f"><path d="M 19.800781 3.292969 L 17.25 17.195312 L 0.363281 14.09375 L 2.914062 0.195312 Z M 19.800781 3.292969 "/></clipPath><clipPath id="2d857d0334"><path d="M 18.527344 10.242188 L 0.363281 14.097656 L 2.914062 0.195312 Z M 18.527344 10.242188 "/></clipPath><clipPath id="fe246f7d2f"><rect x="0" width="19" y="0" height="15"/></clipPath></defs><g id="daa58f1019"><g style="fill:#000000;fill-opacity:1;"><g transform="translate(104.713541, 204.056574)"><path style="stroke:none" d="M 29.046875 -12.75 C 28.660156 -10.5625 28.757812 -8.941406 29.34375 -7.890625 C 29.925781 -6.847656 30.875 -6.328125 32.1875 -6.328125 C 33.445312 -6.328125 34.800781 -6.894531 36.25 -8.03125 C 37.707031 -9.175781 38.898438 -10.722656 39.828125 -12.671875 C 40.316406 -12.671875 40.691406 -12.523438 40.953125 -12.234375 C 41.222656 -11.941406 41.3125 -11.457031 41.21875 -10.78125 C 41.019531 -9.800781 40.566406 -8.703125 39.859375 -7.484375 C 39.160156 -6.273438 38.226562 -5.097656 37.0625 -3.953125 C 35.894531 -2.816406 34.554688 -1.875 33.046875 -1.125 C 31.546875 -0.375 29.921875 0 28.171875 0 C 25.796875 0 23.832031 -0.710938 22.28125 -2.140625 C 20.726562 -3.578125 19.851562 -5.609375 19.65625 -8.234375 C 18.15625 -5.554688 16.445312 -3.515625 14.53125 -2.109375 C 12.613281 -0.703125 10.609375 0 8.515625 0 C 5.554688 0 3.03125 -1.015625 0.9375 -3.046875 C -1.144531 -5.085938 -2.1875 -8.25 -2.1875 -12.53125 C -2.1875 -16.601562 -1.648438 -20.128906 -0.578125 -23.109375 C 0.484375 -26.097656 1.890625 -28.578125 3.640625 -30.546875 C 5.390625 -32.515625 7.316406 -33.984375 9.421875 -34.953125 C 11.535156 -35.921875 13.660156 -36.40625 15.796875 -36.40625 C 17.640625 -36.40625 19.203125 -36.078125 20.484375 -35.421875 C 21.773438 -34.765625 22.835938 -33.90625 23.671875 -32.84375 C 24.242188 -34.144531 25.023438 -35.0625 26.015625 -35.59375 C 27.015625 -36.132812 28.414062 -36.40625 30.21875 -36.40625 C 31.476562 -36.40625 32.398438 -36.28125 32.984375 -36.03125 C 33.566406 -35.789062 33.859375 -35.671875 33.859375 -35.671875 C 33.859375 -35.671875 33.675781 -35.296875 33.3125 -34.546875 C 32.945312 -33.796875 32.570312 -32.425781 32.1875 -30.4375 Z M 11.4375 -6.328125 C 12.738281 -6.328125 13.945312 -6.921875 15.0625 -8.109375 C 16.1875 -9.304688 17.1875 -10.835938 18.0625 -12.703125 C 18.9375 -14.578125 19.695312 -16.566406 20.34375 -18.671875 C 21 -20.785156 21.5 -22.738281 21.84375 -24.53125 L 22.5 -27.953125 C 22.15625 -28.679688 21.617188 -29.445312 20.890625 -30.25 C 20.171875 -31.050781 19.101562 -31.453125 17.6875 -31.453125 C 16.039062 -31.453125 14.40625 -30.675781 12.78125 -29.125 C 11.15625 -27.570312 9.804688 -25.375 8.734375 -22.53125 C 7.671875 -19.695312 7.140625 -16.3125 7.140625 -12.375 C 7.140625 -10.332031 7.515625 -8.8125 8.265625 -7.8125 C 9.015625 -6.820312 10.070312 -6.328125 11.4375 -6.328125 Z M 11.4375 -6.328125 "/></g></g><g style="fill:#000000;fill-opacity:1;"><g transform="translate(145.26791, 204.056574)"><path style="stroke:none" d="M 10.703125 -26 C 13.035156 -29.925781 15.34375 -32.640625 17.625 -34.140625 C 19.90625 -35.648438 21.867188 -36.40625 23.515625 -36.40625 C 25.316406 -36.40625 26.738281 -35.921875 27.78125 -34.953125 C 28.820312 -33.984375 29.34375 -32.578125 29.34375 -30.734375 C 29.34375 -28.691406 28.785156 -27.015625 27.671875 -25.703125 C 26.554688 -24.390625 25.097656 -23.734375 23.296875 -23.734375 C 22.378906 -23.734375 21.601562 -23.804688 20.96875 -23.953125 C 20.34375 -24.097656 20.03125 -24.171875 20.03125 -24.171875 C 20.03125 -24.171875 20.1875 -24.535156 20.5 -25.265625 C 20.8125 -25.992188 20.96875 -26.84375 20.96875 -27.8125 C 20.96875 -28.882812 20.457031 -29.421875 19.4375 -29.421875 C 18.851562 -29.421875 18.148438 -29.128906 17.328125 -28.546875 C 16.503906 -27.960938 15.484375 -26.820312 14.265625 -25.125 C 13.347656 -23.863281 12.472656 -22.441406 11.640625 -20.859375 C 10.816406 -19.285156 10.039062 -17.359375 9.3125 -15.078125 C 8.59375 -12.796875 7.941406 -9.929688 7.359375 -6.484375 C 7.015625 -4.347656 6.925781 -2.84375 7.09375 -1.96875 C 7.269531 -1.09375 7.359375 -0.65625 7.359375 -0.65625 C 7.359375 -0.65625 7.066406 -0.546875 6.484375 -0.328125 C 5.898438 -0.109375 4.925781 0 3.5625 0 C 0.75 0 -0.957031 -0.566406 -1.5625 -1.703125 C -2.164062 -2.847656 -2.253906 -4.679688 -1.828125 -7.203125 L 2.03125 -29.484375 C 2.425781 -31.765625 2.535156 -33.378906 2.359375 -34.328125 C 2.191406 -35.273438 2.109375 -35.75 2.109375 -35.75 C 2.109375 -35.75 2.398438 -35.859375 2.984375 -36.078125 C 3.566406 -36.296875 4.535156 -36.40625 5.890625 -36.40625 C 8.710938 -36.40625 10.425781 -35.8125 11.03125 -34.625 C 11.632812 -33.4375 11.71875 -31.628906 11.28125 -29.203125 Z M 10.703125 -26 "/></g></g><g style="fill:#000000;fill-opacity:1;"><g transform="translate(177.522096, 204.056574)"><path style="stroke:none" d="M 17.984375 -36.40625 C 22.253906 -36.40625 25.550781 -35.128906 27.875 -32.578125 C 30.207031 -30.035156 31.375 -26.675781 31.375 -22.5 C 31.375 -21.71875 31.335938 -20.9375 31.265625 -20.15625 C 31.191406 -19.382812 31.109375 -18.632812 31.015625 -17.90625 C 32.859375 -18.195312 34.4375 -18.800781 35.75 -19.71875 C 37.0625 -20.644531 38.066406 -21.519531 38.765625 -22.34375 C 39.472656 -23.175781 39.828125 -23.59375 39.828125 -23.59375 C 40.847656 -23.59375 41.285156 -22.984375 41.140625 -21.765625 C 40.992188 -20.941406 40.421875 -20.007812 39.421875 -18.96875 C 38.429688 -17.925781 37.144531 -16.988281 35.5625 -16.15625 C 33.988281 -15.332031 32.234375 -14.800781 30.296875 -14.5625 C 29.078125 -10.238281 26.828125 -6.726562 23.546875 -4.03125 C 20.273438 -1.34375 16.164062 0 11.21875 0 C 7.382812 0 4.191406 -1.1875 1.640625 -3.5625 C -0.910156 -5.945312 -2.1875 -9.394531 -2.1875 -13.90625 C -2.1875 -18.320312 -1.375 -22.21875 0.25 -25.59375 C 1.875 -28.96875 4.203125 -31.613281 7.234375 -33.53125 C 10.273438 -35.445312 13.859375 -36.40625 17.984375 -36.40625 Z M 18.28125 -22.28125 C 18.28125 -23.539062 18.59375 -24.617188 19.21875 -25.515625 C 19.851562 -26.421875 20.773438 -26.992188 21.984375 -27.234375 C 21.597656 -30.972656 20.019531 -32.84375 17.25 -32.84375 C 15.457031 -32.84375 13.6875 -31.773438 11.9375 -29.640625 C 10.1875 -27.503906 8.804688 -23.71875 7.796875 -18.28125 C 7.597656 -17.351562 7.4375 -16.097656 7.3125 -14.515625 C 7.195312 -12.941406 7.140625 -11.695312 7.140625 -10.78125 C 7.140625 -8.5 7.5625 -6.738281 8.40625 -5.5 C 9.257812 -4.257812 10.4375 -3.640625 11.9375 -3.640625 C 13.925781 -3.640625 15.707031 -4.691406 17.28125 -6.796875 C 18.863281 -8.910156 20.117188 -12.15625 21.046875 -16.53125 C 19.203125 -17.9375 18.28125 -19.851562 18.28125 -22.28125 Z M 18.28125 -22.28125 "/></g></g><g style="fill:#000000;fill-opacity:1;"><g transform="translate(216.18344, 204.056574)"><path style="stroke:none" d="M 5.828125 -53.515625 C 6.210938 -55.796875 6.316406 -57.410156 6.140625 -58.359375 C 5.972656 -59.304688 5.890625 -59.78125 5.890625 -59.78125 C 5.890625 -59.78125 6.179688 -59.890625 6.765625 -60.109375 C 7.347656 -60.328125 8.320312 -60.4375 9.6875 -60.4375 C 12.5 -60.4375 14.207031 -59.875 14.8125 -58.75 C 15.425781 -57.632812 15.515625 -55.789062 15.078125 -53.21875 L 7.9375 -12.75 C 7.59375 -10.601562 7.703125 -8.992188 8.265625 -7.921875 C 8.828125 -6.859375 9.757812 -6.328125 11.0625 -6.328125 C 12.519531 -6.328125 14 -6.894531 15.5 -8.03125 C 17.007812 -9.175781 18.226562 -10.722656 19.15625 -12.671875 C 19.632812 -12.671875 20.003906 -12.523438 20.265625 -12.234375 C 20.535156 -11.941406 20.625 -11.457031 20.53125 -10.78125 C 20.332031 -9.800781 19.859375 -8.703125 19.109375 -7.484375 C 18.359375 -6.273438 17.375 -5.097656 16.15625 -3.953125 C 14.945312 -2.816406 13.566406 -1.875 12.015625 -1.125 C 10.460938 -0.375 8.8125 0 7.0625 0 C 4.539062 0 2.488281 -0.785156 0.90625 -2.359375 C -0.664062 -3.941406 -1.453125 -6.191406 -1.453125 -9.109375 C -1.453125 -9.828125 -1.40625 -10.789062 -1.3125 -12 C -1.21875 -13.21875 -1.046875 -14.554688 -0.796875 -16.015625 Z M 5.828125 -53.515625 "/></g></g><g style="fill:#000000;fill-opacity:1;"><g transform="translate(236.060178, 204.056574)"><path style="stroke:none" d="M 4.078125 -47.328125 C 4.078125 -48.828125 4.585938 -50.078125 5.609375 -51.078125 C 6.628906 -52.078125 7.816406 -52.578125 9.171875 -52.578125 C 10.578125 -52.578125 11.679688 -52.140625 12.484375 -51.265625 C 13.285156 -50.390625 13.6875 -49.296875 13.6875 -47.984375 C 13.6875 -46.722656 13.210938 -45.566406 12.265625 -44.515625 C 11.316406 -43.472656 10.046875 -42.953125 8.453125 -42.953125 C 7.140625 -42.953125 6.082031 -43.363281 5.28125 -44.1875 C 4.476562 -45.019531 4.078125 -46.066406 4.078125 -47.328125 Z M 1.53125 -29.484375 C 1.914062 -31.816406 2.023438 -33.441406 1.859375 -34.359375 C 1.691406 -35.285156 1.609375 -35.75 1.609375 -35.75 C 1.609375 -35.75 1.894531 -35.859375 2.46875 -36.078125 C 3.050781 -36.296875 4.023438 -36.40625 5.390625 -36.40625 C 8.203125 -36.40625 9.910156 -35.847656 10.515625 -34.734375 C 11.128906 -33.617188 11.21875 -31.773438 10.78125 -29.203125 L 7.9375 -12.75 C 7.59375 -10.5625 7.703125 -8.941406 8.265625 -7.890625 C 8.828125 -6.847656 9.757812 -6.328125 11.0625 -6.328125 C 12.320312 -6.328125 13.679688 -6.894531 15.140625 -8.03125 C 16.597656 -9.175781 17.789062 -10.722656 18.71875 -12.671875 C 19.195312 -12.671875 19.566406 -12.523438 19.828125 -12.234375 C 20.097656 -11.941406 20.1875 -11.457031 20.09375 -10.78125 C 19.90625 -9.800781 19.457031 -8.703125 18.75 -7.484375 C 18.039062 -6.273438 17.101562 -5.097656 15.9375 -3.953125 C 14.78125 -2.816406 13.445312 -1.875 11.9375 -1.125 C 10.4375 -0.375 8.8125 0 7.0625 0 C 4.539062 0 2.488281 -0.785156 0.90625 -2.359375 C -0.664062 -3.941406 -1.453125 -6.191406 -1.453125 -9.109375 C -1.453125 -9.828125 -1.40625 -10.789062 -1.3125 -12 C -1.21875 -13.21875 -1.046875 -14.554688 -0.796875 -16.015625 Z M 1.53125 -29.484375 "/></g></g><g style="fill:#000000;fill-opacity:1;"><g transform="translate(255.500061, 204.056574)"><path style="stroke:none" d="M 22.9375 -25.40625 C 23.226562 -27.15625 23.210938 -28.359375 22.890625 -29.015625 C 22.578125 -29.671875 22.007812 -30 21.1875 -30 C 20.019531 -30 18.769531 -29.378906 17.4375 -28.140625 C 16.101562 -26.898438 14.769531 -25.203125 13.4375 -23.046875 C 12.101562 -20.890625 10.910156 -18.425781 9.859375 -15.65625 C 8.816406 -12.882812 8.003906 -9.972656 7.421875 -6.921875 C 7.035156 -4.640625 6.925781 -3.023438 7.09375 -2.078125 C 7.269531 -1.128906 7.359375 -0.65625 7.359375 -0.65625 C 7.359375 -0.65625 7.066406 -0.546875 6.484375 -0.328125 C 5.898438 -0.109375 4.925781 0 3.5625 0 C 0.75 0 -0.957031 -0.566406 -1.5625 -1.703125 C -2.164062 -2.847656 -2.253906 -4.679688 -1.828125 -7.203125 L 2.03125 -29.484375 C 2.425781 -31.765625 2.535156 -33.378906 2.359375 -34.328125 C 2.191406 -35.273438 2.109375 -35.75 2.109375 -35.75 C 2.109375 -35.75 2.398438 -35.859375 2.984375 -36.078125 C 3.566406 -36.296875 4.535156 -36.40625 5.890625 -36.40625 C 8.710938 -36.40625 10.425781 -35.847656 11.03125 -34.734375 C 11.632812 -33.617188 11.71875 -31.773438 11.28125 -29.203125 L 10.703125 -25.84375 C 11.671875 -27.445312 12.894531 -29.0625 14.375 -30.6875 C 15.851562 -32.3125 17.503906 -33.671875 19.328125 -34.765625 C 21.148438 -35.859375 23.03125 -36.40625 24.96875 -36.40625 C 27.25 -36.40625 29.066406 -35.722656 30.421875 -34.359375 C 31.785156 -33.003906 32.46875 -31.1875 32.46875 -28.90625 C 32.46875 -28.125 32.40625 -27.222656 32.28125 -26.203125 C 32.164062 -25.191406 32.007812 -24.128906 31.8125 -23.015625 L 30.078125 -12.75 C 29.734375 -10.945312 29.765625 -9.425781 30.171875 -8.1875 C 30.585938 -6.945312 31.550781 -6.328125 33.0625 -6.328125 C 34.613281 -6.328125 36.039062 -6.910156 37.34375 -8.078125 C 38.65625 -9.242188 39.773438 -10.773438 40.703125 -12.671875 C 41.191406 -12.671875 41.566406 -12.523438 41.828125 -12.234375 C 42.097656 -11.941406 42.179688 -11.457031 42.078125 -10.78125 C 41.941406 -9.851562 41.519531 -8.78125 40.8125 -7.5625 C 40.101562 -6.351562 39.164062 -5.164062 38 -4 C 36.84375 -2.832031 35.519531 -1.875 34.03125 -1.125 C 32.550781 -0.375 30.960938 0 29.265625 0 C 26.546875 0 24.394531 -0.835938 22.8125 -2.515625 C 21.238281 -4.191406 20.453125 -6.390625 20.453125 -9.109375 C 20.453125 -10.078125 20.585938 -11.394531 20.859375 -13.0625 C 21.128906 -14.738281 21.359375 -16.1875 21.546875 -17.40625 Z M 22.9375 -25.40625 "/></g></g><g style="fill:#000000;fill-opacity:1;"><g transform="translate(296.928129, 204.056574)"><path style="stroke:none" d="M 29.046875 -12.75 C 28.660156 -10.5625 28.757812 -8.941406 29.34375 -7.890625 C 29.925781 -6.847656 30.875 -6.328125 32.1875 -6.328125 C 33.445312 -6.328125 34.800781 -6.894531 36.25 -8.03125 C 37.707031 -9.175781 38.898438 -10.722656 39.828125 -12.671875 C 40.316406 -12.671875 40.691406 -12.523438 40.953125 -12.234375 C 41.222656 -11.941406 41.3125 -11.457031 41.21875 -10.78125 C 41.019531 -9.800781 40.566406 -8.703125 39.859375 -7.484375 C 39.160156 -6.273438 38.226562 -5.097656 37.0625 -3.953125 C 35.894531 -2.816406 34.554688 -1.875 33.046875 -1.125 C 31.546875 -0.375 29.921875 0 28.171875 0 C 25.796875 0 23.832031 -0.710938 22.28125 -2.140625 C 20.726562 -3.578125 19.851562 -5.609375 19.65625 -8.234375 C 18.15625 -5.554688 16.445312 -3.515625 14.53125 -2.109375 C 12.613281 -0.703125 10.609375 0 8.515625 0 C 5.554688 0 3.03125 -1.015625 0.9375 -3.046875 C -1.144531 -5.085938 -2.1875 -8.25 -2.1875 -12.53125 C -2.1875 -16.601562 -1.648438 -20.128906 -0.578125 -23.109375 C 0.484375 -26.097656 1.890625 -28.578125 3.640625 -30.546875 C 5.390625 -32.515625 7.316406 -33.984375 9.421875 -34.953125 C 11.535156 -35.921875 13.660156 -36.40625 15.796875 -36.40625 C 17.640625 -36.40625 19.203125 -36.078125 20.484375 -35.421875 C 21.773438 -34.765625 22.835938 -33.90625 23.671875 -32.84375 C 24.242188 -34.144531 25.023438 -35.0625 26.015625 -35.59375 C 27.015625 -36.132812 28.414062 -36.40625 30.21875 -36.40625 C 31.476562 -36.40625 32.398438 -36.28125 32.984375 -36.03125 C 33.566406 -35.789062 33.859375 -35.671875 33.859375 -35.671875 C 33.859375 -35.671875 33.675781 -35.296875 33.3125 -34.546875 C 32.945312 -33.796875 32.570312 -32.425781 32.1875 -30.4375 Z M 11.4375 -6.328125 C 12.738281 -6.328125 13.945312 -6.921875 15.0625 -8.109375 C 16.1875 -9.304688 17.1875 -10.835938 18.0625 -12.703125 C 18.9375 -14.578125 19.695312 -16.566406 20.34375 -18.671875 C 21 -20.785156 21.5 -22.738281 21.84375 -24.53125 L 22.5 -27.953125 C 22.15625 -28.679688 21.617188 -29.445312 20.890625 -30.25 C 20.171875 -31.050781 19.101562 -31.453125 17.6875 -31.453125 C 16.039062 -31.453125 14.40625 -30.675781 12.78125 -29.125 C 11.15625 -27.570312 9.804688 -25.375 8.734375 -22.53125 C 7.671875 -19.695312 7.140625 -16.3125 7.140625 -12.375 C 7.140625 -10.332031 7.515625 -8.8125 8.265625 -7.8125 C 9.015625 -6.820312 10.070312 -6.328125 11.4375 -6.328125 Z M 11.4375 -6.328125 "/></g></g><g style="fill:#000000;fill-opacity:1;"><g transform="translate(26.193866, 233.249985)"><path style="stroke:none" d="M 53.0625 -10.875 C 60.21875 -10.875 66.546875 -12.050781 72.046875 -14.40625 C 77.546875 -16.769531 81.78125 -19.566406 84.75 -22.796875 C 85.800781 -22.796875 86.476562 -22.53125 86.78125 -22 C 87.09375 -21.476562 87.160156 -20.78125 86.984375 -19.90625 C 86.628906 -18.25 85.382812 -16.285156 83.25 -14.015625 C 81.113281 -11.742188 78.234375 -9.535156 74.609375 -7.390625 C 70.984375 -5.253906 66.769531 -3.488281 61.96875 -2.09375 C 57.164062 -0.695312 51.878906 0 46.109375 0 C 38.691406 0 31.988281 -1.632812 26 -4.90625 C 20.019531 -8.1875 15.28125 -12.859375 11.78125 -18.921875 C 8.289062 -24.992188 6.546875 -32.265625 6.546875 -40.734375 C 6.546875 -49.378906 7.789062 -57.21875 10.28125 -64.25 C 12.769531 -71.28125 16.238281 -77.328125 20.6875 -82.390625 C 25.144531 -87.460938 30.300781 -91.375 36.15625 -94.125 C 42.007812 -96.875 48.34375 -98.25 55.15625 -98.25 C 60.65625 -98.25 65.257812 -97.203125 68.96875 -95.109375 C 72.675781 -93.015625 75.46875 -90.285156 77.34375 -86.921875 C 79.226562 -83.554688 80.171875 -79.910156 80.171875 -75.984375 C 80.171875 -71.878906 79.40625 -68.40625 77.875 -65.5625 C 76.351562 -62.726562 74.367188 -60.585938 71.921875 -59.140625 C 69.472656 -57.703125 66.894531 -56.984375 64.1875 -56.984375 C 62.09375 -56.984375 60.410156 -57.351562 59.140625 -58.09375 C 57.878906 -58.84375 56.984375 -59.585938 56.453125 -60.328125 C 55.929688 -61.066406 55.671875 -61.4375 55.671875 -61.4375 C 55.671875 -61.4375 56.171875 -61.71875 57.171875 -62.28125 C 58.179688 -62.851562 59.316406 -63.835938 60.578125 -65.234375 C 61.847656 -66.628906 62.984375 -68.523438 63.984375 -70.921875 C 64.992188 -73.328125 65.5 -76.367188 65.5 -80.046875 C 65.5 -83.535156 64.515625 -86.238281 62.546875 -88.15625 C 60.585938 -90.082031 57.992188 -91.046875 54.765625 -91.046875 C 51.003906 -91.046875 47.332031 -89.78125 43.75 -87.25 C 40.175781 -84.71875 36.96875 -81.203125 34.125 -76.703125 C 31.289062 -72.203125 29.019531 -67.003906 27.3125 -61.109375 C 25.613281 -55.210938 24.765625 -48.90625 24.765625 -42.1875 C 24.765625 -32.132812 27.296875 -24.398438 32.359375 -18.984375 C 37.421875 -13.578125 44.320312 -10.875 53.0625 -10.875 Z M 53.0625 -10.875 "/></g></g><path style="fill:none;stroke-width:4;stroke-linecap:butt;stroke-linejoin:miter;stroke:#000000;stroke-opacity:1;stroke-miterlimit:4;" d="M -0.000978643 1.997806 L 34.945297 1.998248 " transform="matrix(0.131331,-0.738412,0.738412,0.131331,242.688987,158.86581)"/><g clip-rule="nonzero" clip-path="url(#15b4d4189e)"><g clip-rule="nonzero" clip-path="url(#199ef199c5)"><g clip-rule="nonzero" clip-path="url(#cb112b9142)"><g transform="matrix(1,0,0,1,246,124)"><g clip-path="url(#fe246f7d2f)"><g clip-rule="nonzero" clip-path="url(#ab3b038d4f)"><g clip-rule="nonzero" clip-path="url(#5f62635f7f)"><g clip-rule="nonzero" clip-path="url(#2d857d0334)"><path style=" stroke:none;fill-rule:nonzero;fill:#ff3131;fill-opacity:1;" d="M 19.800781 3.292969 L 17.25 17.195312 L 0.363281 14.09375 L 2.914062 0.195312 Z M 19.800781 3.292969 "/></g></g></g></g></g></g></g></g><g style="fill:#000000;fill-opacity:1;"><g transform="translate(132.080181, 233.85142)"><path style="stroke:none" d="M 23.34375 -10.59375 C 23.769531 -10.59375 23.984375 -10.429688 23.984375 -10.109375 C 23.984375 -9.953125 23.9375 -9.832031 23.84375 -9.75 C 23.75 -9.664062 23.597656 -9.582031 23.390625 -9.5 C 23.191406 -9.414062 23.039062 -9.3125 22.9375 -9.1875 C 22.832031 -9.0625 22.742188 -8.867188 22.671875 -8.609375 C 22.566406 -8.128906 22.515625 -7.546875 22.515625 -6.859375 C 22.515625 -6.171875 22.519531 -5.71875 22.53125 -5.5 C 22.539062 -5.289062 22.554688 -5.070312 22.578125 -4.84375 C 22.628906 -4.039062 22.679688 -3.515625 22.734375 -3.265625 C 22.796875 -3.015625 22.828125 -2.769531 22.828125 -2.53125 C 22.828125 -2.300781 22.679688 -2.050781 22.390625 -1.78125 C 22.109375 -1.519531 21.726562 -1.273438 21.25 -1.046875 C 20.769531 -0.816406 20.21875 -0.609375 19.59375 -0.421875 C 18.976562 -0.242188 18.347656 -0.0859375 17.703125 0.046875 C 16.328125 0.328125 15.0625 0.46875 13.90625 0.46875 C 9.9375 0.46875 6.804688 -0.664062 4.515625 -2.9375 C 2.421875 -5.019531 1.375 -7.648438 1.375 -10.828125 C 1.375 -14.398438 2.53125 -17.269531 4.84375 -19.4375 C 7.175781 -21.625 10.269531 -22.71875 14.125 -22.71875 C 16.976562 -22.71875 19.253906 -22.375 20.953125 -21.6875 C 21.285156 -21.539062 21.507812 -21.390625 21.625 -21.234375 C 21.863281 -20.929688 22 -20.460938 22.03125 -19.828125 C 22.070312 -19.203125 22.097656 -18.769531 22.109375 -18.53125 C 22.160156 -17.976562 22.1875 -17.632812 22.1875 -17.5 C 22.1875 -17.0625 22.035156 -16.84375 21.734375 -16.84375 C 21.441406 -16.84375 21.210938 -17.117188 21.046875 -17.671875 C 20.890625 -18.222656 20.570312 -18.738281 20.09375 -19.21875 C 19.625 -19.707031 19.054688 -20.117188 18.390625 -20.453125 C 17.066406 -21.117188 15.597656 -21.453125 13.984375 -21.453125 C 12.367188 -21.453125 11 -21.234375 9.875 -20.796875 C 8.75 -20.359375 7.789062 -19.726562 7 -18.90625 C 5.351562 -17.207031 4.53125 -14.90625 4.53125 -12 C 4.53125 -8.90625 5.476562 -6.285156 7.375 -4.140625 C 8.269531 -3.128906 9.332031 -2.332031 10.5625 -1.75 C 11.800781 -1.164062 13.148438 -0.875 14.609375 -0.875 C 16.921875 -0.875 18.429688 -1.3125 19.140625 -2.1875 C 19.597656 -2.769531 19.828125 -3.554688 19.828125 -4.546875 L 19.828125 -8.15625 C 19.828125 -8.675781 19.703125 -8.992188 19.453125 -9.109375 C 19.128906 -9.273438 18.6875 -9.359375 18.125 -9.359375 C 17.175781 -9.359375 16.703125 -9.566406 16.703125 -9.984375 C 16.703125 -10.410156 17.078125 -10.625 17.828125 -10.625 L 21.171875 -10.40625 Z M 23.34375 -10.59375 "/></g></g><g style="fill:#000000;fill-opacity:1;"><g transform="translate(157.212057, 233.85142)"><path style="stroke:none" d="M 1.265625 -7.375 C 1.265625 -8.445312 1.457031 -9.484375 1.84375 -10.484375 C 2.226562 -11.492188 2.773438 -12.382812 3.484375 -13.15625 C 5.035156 -14.820312 6.96875 -15.65625 9.28125 -15.65625 C 11.84375 -15.65625 13.816406 -14.882812 15.203125 -13.34375 C 16.453125 -11.945312 17.078125 -10.140625 17.078125 -7.921875 C 17.078125 -5.671875 16.332031 -3.726562 14.84375 -2.09375 C 13.3125 -0.414062 11.382812 0.421875 9.0625 0.421875 C 6.5 0.421875 4.53125 -0.347656 3.15625 -1.890625 C 1.894531 -3.285156 1.265625 -5.113281 1.265625 -7.375 Z M 4.0625 -8.0625 C 4.0625 -6.976562 4.210938 -5.96875 4.515625 -5.03125 C 4.816406 -4.09375 5.226562 -3.3125 5.75 -2.6875 C 6.769531 -1.425781 8.066406 -0.796875 9.640625 -0.796875 C 11.035156 -0.796875 12.171875 -1.347656 13.046875 -2.453125 C 13.953125 -3.609375 14.40625 -5.09375 14.40625 -6.90625 C 14.40625 -9.3125 13.851562 -11.191406 12.75 -12.546875 C 11.707031 -13.796875 10.398438 -14.421875 8.828125 -14.421875 C 7.429688 -14.421875 6.296875 -13.867188 5.421875 -12.765625 C 4.515625 -11.617188 4.0625 -10.050781 4.0625 -8.0625 Z M 4.0625 -8.0625 "/></g></g><g style="fill:#000000;fill-opacity:1;"><g transform="translate(175.455083, 233.85142)"><path style="stroke:none" d="M 2.03125 0.25 C 1.300781 0.25 0.9375 0.046875 0.9375 -0.359375 C 0.9375 -0.679688 1.140625 -0.84375 1.546875 -0.84375 L 2.375 -0.765625 C 2.625 -0.765625 2.832031 -0.8125 3 -0.90625 C 3.164062 -1 3.296875 -1.203125 3.390625 -1.515625 C 3.566406 -2.078125 3.65625 -3.328125 3.65625 -5.265625 L 3.65625 -17.625 C 3.65625 -19.46875 3.269531 -20.441406 2.5 -20.546875 C 1.945312 -20.640625 1.671875 -20.820312 1.671875 -21.09375 C 1.671875 -21.351562 1.929688 -21.535156 2.453125 -21.640625 C 2.972656 -21.742188 3.441406 -21.875 3.859375 -22.03125 C 4.285156 -22.195312 4.660156 -22.351562 4.984375 -22.5 C 5.304688 -22.65625 5.578125 -22.785156 5.796875 -22.890625 C 6.023438 -23.003906 6.191406 -23.0625 6.296875 -23.0625 C 6.546875 -23.0625 6.671875 -22.929688 6.671875 -22.671875 C 6.671875 -22.554688 6.648438 -22.429688 6.609375 -22.296875 C 6.378906 -21.703125 6.253906 -20.941406 6.234375 -20.015625 C 6.222656 -19.097656 6.21875 -18.347656 6.21875 -17.765625 L 6.21875 -5.265625 C 6.21875 -3.328125 6.285156 -2.140625 6.421875 -1.703125 C 6.554688 -1.265625 6.707031 -1 6.875 -0.90625 C 7.039062 -0.8125 7.25 -0.765625 7.5 -0.765625 L 8.328125 -0.84375 C 8.742188 -0.84375 8.953125 -0.679688 8.953125 -0.359375 C 8.953125 0.046875 8.585938 0.25 7.859375 0.25 C 7.429688 0.25 6.988281 0.207031 6.53125 0.125 C 6.082031 0.0390625 5.5625 0 4.96875 0 C 4.382812 0 3.851562 0.0390625 3.375 0.125 C 2.894531 0.207031 2.445312 0.25 2.03125 0.25 Z M 2.03125 0.25 "/></g></g><g style="fill:#000000;fill-opacity:1;"><g transform="translate(185.248879, 233.85142)"><path style="stroke:none" d="M 2.609375 0.25 C 1.867188 0.25 1.5 0.046875 1.5 -0.359375 C 1.5 -0.679688 1.703125 -0.84375 2.109375 -0.84375 L 2.765625 -0.765625 C 3.023438 -0.765625 3.234375 -0.8125 3.390625 -0.90625 C 3.554688 -1 3.675781 -1.203125 3.75 -1.515625 C 3.894531 -2.035156 3.96875 -3.285156 3.96875 -5.265625 L 3.96875 -13.921875 L 2.40625 -13.96875 C 2.21875 -13.96875 2.125 -14.070312 2.125 -14.28125 C 2.125 -14.6875 2.191406 -14.953125 2.328125 -15.078125 C 2.472656 -15.210938 2.585938 -15.28125 2.671875 -15.28125 L 3.96875 -15.28125 L 3.96875 -15.328125 C 3.96875 -19.960938 4.941406 -22.84375 6.890625 -23.96875 C 7.566406 -24.375 8.375 -24.578125 9.3125 -24.578125 C 10.125 -24.578125 10.726562 -24.488281 11.125 -24.3125 C 11.53125 -24.144531 11.828125 -24.003906 12.015625 -23.890625 C 12.203125 -23.785156 12.378906 -23.671875 12.546875 -23.546875 C 12.921875 -23.210938 13.109375 -22.882812 13.109375 -22.5625 C 13.109375 -22.25 13.003906 -22 12.796875 -21.8125 C 12.585938 -21.632812 12.378906 -21.546875 12.171875 -21.546875 C 11.960938 -21.546875 11.796875 -21.550781 11.671875 -21.5625 C 11.546875 -21.582031 11.421875 -21.632812 11.296875 -21.71875 C 11.023438 -21.863281 10.765625 -22.078125 10.515625 -22.359375 C 10.265625 -22.640625 10.097656 -22.828125 10.015625 -22.921875 C 9.929688 -23.015625 9.835938 -23.09375 9.734375 -23.15625 C 9.472656 -23.300781 9.117188 -23.375 8.671875 -23.375 C 8.222656 -23.375 7.867188 -23.210938 7.609375 -22.890625 C 7.347656 -22.578125 7.144531 -22.097656 7 -21.453125 C 6.78125 -20.398438 6.671875 -18.441406 6.671875 -15.578125 L 6.671875 -15.28125 L 10.15625 -15.28125 C 10.507812 -15.28125 10.6875 -15.128906 10.6875 -14.828125 C 10.6875 -14.472656 10.613281 -14.210938 10.46875 -14.046875 C 10.320312 -13.890625 10.203125 -13.8125 10.109375 -13.8125 L 6.671875 -13.875 L 6.671875 -5.296875 C 6.671875 -3.242188 6.738281 -2.019531 6.875 -1.625 C 7.007812 -1.226562 7.164062 -0.988281 7.34375 -0.90625 C 7.53125 -0.832031 7.769531 -0.796875 8.0625 -0.796875 L 9.71875 -0.90625 C 10.207031 -0.90625 10.453125 -0.710938 10.453125 -0.328125 C 10.453125 0.0546875 10.050781 0.25 9.25 0.25 L 5.421875 0 C 4.859375 0 4.34375 0.0390625 3.875 0.125 C 3.40625 0.207031 2.984375 0.25 2.609375 0.25 Z M 2.609375 0.25 "/></g></g><g style="fill:#000000;fill-opacity:1;"><g transform="translate(196.802238, 233.85142)"><path style="stroke:none" d=""/></g></g><g style="fill:#000000;fill-opacity:1;"><g transform="translate(205.517063, 233.85142)"><path style="stroke:none" d="M 2.203125 0.25 C 1.484375 0.25 1.125 0.046875 1.125 -0.359375 C 1.125 -0.679688 1.328125 -0.84375 1.734375 -0.84375 L 2.546875 -0.765625 C 3.140625 -0.765625 3.550781 -1.050781 3.78125 -1.625 C 4.039062 -2.269531 4.171875 -3.484375 4.171875 -5.265625 L 4.171875 -16.984375 C 4.171875 -18.804688 4.070312 -19.953125 3.875 -20.421875 C 3.6875 -20.898438 3.488281 -21.195312 3.28125 -21.3125 C 3.070312 -21.425781 2.828125 -21.484375 2.546875 -21.484375 L 1.734375 -21.421875 C 1.328125 -21.421875 1.125 -21.578125 1.125 -21.890625 C 1.125 -22.304688 1.425781 -22.515625 2.03125 -22.515625 C 2.644531 -22.515625 3.222656 -22.46875 3.765625 -22.375 C 4.316406 -22.289062 4.894531 -22.25 5.5 -22.25 C 6.09375 -22.25 6.648438 -22.289062 7.171875 -22.375 C 7.703125 -22.46875 8.269531 -22.515625 8.875 -22.515625 C 9.488281 -22.515625 9.796875 -22.304688 9.796875 -21.890625 C 9.796875 -21.578125 9.597656 -21.421875 9.203125 -21.421875 L 8.40625 -21.484375 C 7.800781 -21.484375 7.382812 -21.195312 7.15625 -20.625 C 6.90625 -19.976562 6.78125 -18.765625 6.78125 -16.984375 L 6.78125 -13.21875 L 18.515625 -13.21875 L 18.515625 -16.984375 C 18.515625 -18.804688 18.414062 -19.953125 18.21875 -20.421875 C 18.03125 -20.898438 17.832031 -21.195312 17.625 -21.3125 C 17.414062 -21.425781 17.171875 -21.484375 16.890625 -21.484375 L 16.078125 -21.421875 C 15.671875 -21.421875 15.46875 -21.578125 15.46875 -21.890625 C 15.46875 -22.304688 15.769531 -22.515625 16.375 -22.515625 C 16.988281 -22.515625 17.566406 -22.46875 18.109375 -22.375 C 18.660156 -22.289062 19.238281 -22.25 19.84375 -22.25 C 20.4375 -22.25 20.992188 -22.289062 21.515625 -22.375 C 22.046875 -22.46875 22.613281 -22.515625 23.21875 -22.515625 C 23.832031 -22.515625 24.140625 -22.304688 24.140625 -21.890625 C 24.140625 -21.578125 23.941406 -21.421875 23.546875 -21.421875 L 22.75 -21.484375 C 22.144531 -21.484375 21.726562 -21.195312 21.5 -20.625 C 21.25 -19.976562 21.125 -18.765625 21.125 -16.984375 L 21.125 -5.265625 C 21.125 -3.460938 21.21875 -2.320312 21.40625 -1.84375 C 21.601562 -1.363281 21.800781 -1.0625 22 -0.9375 C 22.207031 -0.820312 22.457031 -0.765625 22.75 -0.765625 L 23.546875 -0.84375 C 23.941406 -0.84375 24.140625 -0.679688 24.140625 -0.359375 C 24.140625 0.046875 23.785156 0.25 23.078125 0.25 C 22.710938 0.25 22.328125 0.21875 21.921875 0.15625 C 21.285156 0.0507812 20.601562 0 19.875 0 C 19.144531 0 18.492188 0.0390625 17.921875 0.125 C 17.359375 0.207031 16.898438 0.25 16.546875 0.25 C 15.828125 0.25 15.46875 0.046875 15.46875 -0.359375 C 15.46875 -0.679688 15.671875 -0.84375 16.078125 -0.84375 L 16.890625 -0.765625 C 17.484375 -0.765625 17.894531 -1.050781 18.125 -1.625 C 18.382812 -2.269531 18.515625 -3.484375 18.515625 -5.265625 L 18.515625 -11.640625 L 6.78125 -11.640625 L 6.78125 -5.265625 C 6.78125 -3.460938 6.875 -2.320312 7.0625 -1.84375 C 7.257812 -1.363281 7.457031 -1.0625 7.65625 -0.9375 C 7.863281 -0.820312 8.113281 -0.765625 8.40625 -0.765625 L 9.203125 -0.84375 C 9.597656 -0.84375 9.796875 -0.679688 9.796875 -0.359375 C 9.796875 0.046875 9.441406 0.25 8.734375 0.25 C 8.367188 0.25 7.984375 0.21875 7.578125 0.15625 C 6.242188 -0.0625 5.101562 -0.101562 4.15625 0.03125 C 3.207031 0.175781 2.554688 0.25 2.203125 0.25 Z M 2.203125 0.25 "/></g></g><g style="fill:#000000;fill-opacity:1;"><g transform="translate(230.781736, 233.85142)"><path style="stroke:none" d="M 1.265625 -7.375 C 1.265625 -8.445312 1.457031 -9.484375 1.84375 -10.484375 C 2.226562 -11.492188 2.773438 -12.382812 3.484375 -13.15625 C 5.035156 -14.820312 6.96875 -15.65625 9.28125 -15.65625 C 11.84375 -15.65625 13.816406 -14.882812 15.203125 -13.34375 C 16.453125 -11.945312 17.078125 -10.140625 17.078125 -7.921875 C 17.078125 -5.671875 16.332031 -3.726562 14.84375 -2.09375 C 13.3125 -0.414062 11.382812 0.421875 9.0625 0.421875 C 6.5 0.421875 4.53125 -0.347656 3.15625 -1.890625 C 1.894531 -3.285156 1.265625 -5.113281 1.265625 -7.375 Z M 4.0625 -8.0625 C 4.0625 -6.976562 4.210938 -5.96875 4.515625 -5.03125 C 4.816406 -4.09375 5.226562 -3.3125 5.75 -2.6875 C 6.769531 -1.425781 8.066406 -0.796875 9.640625 -0.796875 C 11.035156 -0.796875 12.171875 -1.347656 13.046875 -2.453125 C 13.953125 -3.609375 14.40625 -5.09375 14.40625 -6.90625 C 14.40625 -9.3125 13.851562 -11.191406 12.75 -12.546875 C 11.707031 -13.796875 10.398438 -14.421875 8.828125 -14.421875 C 7.429688 -14.421875 6.296875 -13.867188 5.421875 -12.765625 C 4.515625 -11.617188 4.0625 -10.050781 4.0625 -8.0625 Z M 4.0625 -8.0625 "/></g></g><g style="fill:#000000;fill-opacity:1;"><g transform="translate(249.024762, 233.85142)"><path style="stroke:none" d="M 2.0625 0.25 C 1.332031 0.25 0.96875 0.046875 0.96875 -0.359375 C 0.96875 -0.679688 1.171875 -0.84375 1.578125 -0.84375 L 2.40625 -0.765625 C 2.664062 -0.765625 2.875 -0.8125 3.03125 -0.90625 C 3.195312 -1 3.328125 -1.203125 3.421875 -1.515625 C 3.597656 -2.078125 3.6875 -3.328125 3.6875 -5.265625 L 3.6875 -10.234375 C 3.6875 -11.335938 3.613281 -12.035156 3.46875 -12.328125 C 3.320312 -12.617188 3.148438 -12.816406 2.953125 -12.921875 C 2.765625 -13.023438 2.453125 -13.109375 2.015625 -13.171875 C 1.585938 -13.242188 1.375 -13.421875 1.375 -13.703125 C 1.375 -13.953125 1.65625 -14.132812 2.21875 -14.25 C 3.539062 -14.519531 4.453125 -14.796875 4.953125 -15.078125 C 5.617188 -15.460938 6.078125 -15.65625 6.328125 -15.65625 C 6.578125 -15.65625 6.703125 -15.53125 6.703125 -15.28125 C 6.703125 -15.15625 6.675781 -15.023438 6.625 -14.890625 C 6.582031 -14.753906 6.53125 -14.59375 6.46875 -14.40625 C 6.394531 -14.113281 6.335938 -13.539062 6.296875 -12.6875 C 7.273438 -14.113281 8.507812 -15.035156 10 -15.453125 C 10.46875 -15.585938 10.941406 -15.65625 11.421875 -15.65625 C 14.015625 -15.65625 15.613281 -14.503906 16.21875 -12.203125 C 17.207031 -13.835938 18.507812 -14.90625 20.125 -15.40625 C 20.632812 -15.570312 21.148438 -15.65625 21.671875 -15.65625 C 23.285156 -15.65625 24.535156 -15.179688 25.421875 -14.234375 C 26.304688 -13.296875 26.75 -11.832031 26.75 -9.84375 L 26.75 -5.265625 C 26.75 -3.328125 26.8125 -2.140625 26.9375 -1.703125 C 27.070312 -1.265625 27.222656 -1 27.390625 -0.90625 C 27.554688 -0.8125 27.769531 -0.765625 28.03125 -0.765625 L 28.859375 -0.84375 C 29.265625 -0.84375 29.46875 -0.679688 29.46875 -0.359375 C 29.46875 0.046875 29.097656 0.25 28.359375 0.25 C 27.929688 0.25 27.476562 0.207031 27 0.125 C 26.53125 0.0390625 26.019531 0 25.46875 0 C 24.925781 0 24.40625 0.0390625 23.90625 0.125 C 23.414062 0.207031 22.960938 0.25 22.546875 0.25 C 21.804688 0.25 21.4375 0.046875 21.4375 -0.359375 C 21.4375 -0.679688 21.640625 -0.84375 22.046875 -0.84375 L 22.875 -0.765625 C 23.132812 -0.765625 23.34375 -0.8125 23.5 -0.90625 C 23.664062 -1 23.800781 -1.203125 23.90625 -1.515625 C 24.082031 -2.066406 24.171875 -3.316406 24.171875 -5.265625 L 24.171875 -9.046875 C 24.171875 -11.472656 23.519531 -12.953125 22.21875 -13.484375 C 21.789062 -13.648438 21.335938 -13.734375 20.859375 -13.734375 C 20.378906 -13.734375 19.925781 -13.644531 19.5 -13.46875 C 19.082031 -13.300781 18.691406 -13.050781 18.328125 -12.71875 C 17.515625 -12 16.90625 -11.046875 16.5 -9.859375 L 16.5 -5.265625 C 16.5 -3.328125 16.566406 -2.140625 16.703125 -1.703125 C 16.835938 -1.265625 16.988281 -1 17.15625 -0.90625 C 17.320312 -0.8125 17.53125 -0.765625 17.78125 -0.765625 L 18.609375 -0.84375 C 19.015625 -0.84375 19.21875 -0.679688 19.21875 -0.359375 C 19.21875 0.046875 18.847656 0.25 18.109375 0.25 C 17.691406 0.25 17.242188 0.207031 16.765625 0.125 C 16.285156 0.0390625 15.769531 0 15.21875 0 C 14.675781 0 14.160156 0.0390625 13.671875 0.125 C 13.179688 0.207031 12.722656 0.25 12.296875 0.25 C 11.554688 0.25 11.1875 0.046875 11.1875 -0.359375 C 11.1875 -0.679688 11.390625 -0.84375 11.796875 -0.84375 L 12.640625 -0.765625 C 12.890625 -0.765625 13.097656 -0.8125 13.265625 -0.90625 C 13.429688 -1 13.5625 -1.203125 13.65625 -1.515625 C 13.832031 -2.066406 13.921875 -3.316406 13.921875 -5.265625 L 13.921875 -9.046875 C 13.921875 -11.472656 13.273438 -12.953125 11.984375 -13.484375 C 11.554688 -13.648438 11.097656 -13.734375 10.609375 -13.734375 C 10.128906 -13.734375 9.679688 -13.644531 9.265625 -13.46875 C 8.847656 -13.300781 8.445312 -13.050781 8.0625 -12.71875 C 7.269531 -12 6.671875 -11.046875 6.265625 -9.859375 L 6.265625 -5.265625 C 6.265625 -3.328125 6.328125 -2.140625 6.453125 -1.703125 C 6.585938 -1.265625 6.738281 -1 6.90625 -0.90625 C 7.070312 -0.8125 7.28125 -0.765625 7.53125 -0.765625 L 8.375 -0.84375 C 8.78125 -0.84375 8.984375 -0.679688 8.984375 -0.359375 C 8.984375 0.046875 8.617188 0.25 7.890625 0.25 C 7.460938 0.25 7.019531 0.207031 6.5625 0.125 C 6.113281 0.0390625 5.597656 0 5.015625 0 C 4.429688 0 3.894531 0.0390625 3.40625 0.125 C 2.925781 0.207031 2.476562 0.25 2.0625 0.25 Z M 2.0625 0.25 "/></g></g><g style="fill:#000000;fill-opacity:1;"><g transform="translate(278.804541, 233.85142)"><path style="stroke:none" d="M 3.359375 -1.859375 C 2.710938 -2.578125 2.210938 -3.421875 1.859375 -4.390625 C 1.515625 -5.367188 1.34375 -6.453125 1.34375 -7.640625 C 1.34375 -8.835938 1.546875 -9.929688 1.953125 -10.921875 C 2.367188 -11.921875 2.9375 -12.773438 3.65625 -13.484375 C 5.144531 -14.953125 6.988281 -15.6875 9.1875 -15.6875 C 11 -15.6875 12.460938 -15.085938 13.578125 -13.890625 C 14.640625 -12.742188 15.171875 -11.320312 15.171875 -9.625 C 15.171875 -9.070312 15.09375 -8.691406 14.9375 -8.484375 C 14.789062 -8.285156 14.609375 -8.164062 14.390625 -8.125 C 14.171875 -8.082031 13.867188 -8.046875 13.484375 -8.015625 C 13.097656 -7.992188 12.625 -7.96875 12.0625 -7.9375 C 11.507812 -7.90625 10.894531 -7.867188 10.21875 -7.828125 C 9.539062 -7.796875 8.847656 -7.757812 8.140625 -7.71875 C 6.503906 -7.625 5.195312 -7.523438 4.21875 -7.421875 C 4.457031 -4.441406 5.597656 -2.507812 7.640625 -1.625 C 8.304688 -1.34375 9.015625 -1.203125 9.765625 -1.203125 C 11.359375 -1.203125 12.617188 -1.664062 13.546875 -2.59375 C 13.941406 -2.988281 14.242188 -3.1875 14.453125 -3.1875 C 14.859375 -3.1875 15.0625 -2.945312 15.0625 -2.46875 C 15.0625 -2.226562 14.894531 -1.9375 14.5625 -1.59375 C 14.226562 -1.25 13.75 -0.894531 13.125 -0.53125 C 12.03125 0.101562 10.753906 0.421875 9.296875 0.421875 C 7.835938 0.421875 6.644531 0.21875 5.71875 -0.1875 C 4.789062 -0.59375 4.003906 -1.148438 3.359375 -1.859375 Z M 4.1875 -8.65625 C 9.375 -8.914062 12.109375 -9.195312 12.390625 -9.5 C 12.484375 -9.601562 12.53125 -9.925781 12.53125 -10.46875 C 12.53125 -11.019531 12.425781 -11.550781 12.21875 -12.0625 C 12.007812 -12.570312 11.726562 -13.007812 11.375 -13.375 C 10.644531 -14.125 9.738281 -14.5 8.65625 -14.5 C 7.425781 -14.5 6.390625 -13.984375 5.546875 -12.953125 C 4.660156 -11.878906 4.207031 -10.445312 4.1875 -8.65625 Z M 4.1875 -8.65625 "/></g></g><g style="fill:#000000;fill-opacity:1;"><g transform="translate(295.155206, 233.85142)"><path style="stroke:none" d="M 3.03125 -0.890625 C 2.53125 -1.253906 2.132812 -1.65625 1.84375 -2.09375 C 1.550781 -2.53125 1.40625 -2.875 1.40625 -3.125 C 1.40625 -3.375 1.441406 -3.5625 1.515625 -3.6875 C 1.585938 -3.820312 1.6875 -3.941406 1.8125 -4.046875 C 2.09375 -4.328125 2.367188 -4.46875 2.640625 -4.46875 C 2.921875 -4.46875 3.128906 -4.398438 3.265625 -4.265625 C 3.410156 -4.140625 3.546875 -3.890625 3.671875 -3.515625 C 3.804688 -3.148438 3.988281 -2.796875 4.21875 -2.453125 C 4.457031 -2.109375 4.742188 -1.8125 5.078125 -1.5625 C 5.796875 -1.019531 6.675781 -0.75 7.71875 -0.75 C 8.632812 -0.75 9.414062 -0.972656 10.0625 -1.421875 C 10.738281 -1.890625 11.078125 -2.472656 11.078125 -3.171875 C 11.078125 -3.878906 10.769531 -4.5 10.15625 -5.03125 C 9.507812 -5.59375 8.539062 -6.128906 7.25 -6.640625 C 5.96875 -7.160156 5.054688 -7.597656 4.515625 -7.953125 C 3.972656 -8.304688 3.53125 -8.679688 3.1875 -9.078125 C 2.53125 -9.847656 2.203125 -10.722656 2.203125 -11.703125 C 2.203125 -12.828125 2.710938 -13.765625 3.734375 -14.515625 C 4.765625 -15.273438 6.054688 -15.65625 7.609375 -15.65625 C 8.941406 -15.65625 10.066406 -15.375 10.984375 -14.8125 C 11.785156 -14.3125 12.1875 -13.785156 12.1875 -13.234375 C 12.1875 -12.941406 12.039062 -12.691406 11.75 -12.484375 C 11.457031 -12.285156 11.179688 -12.1875 10.921875 -12.1875 C 10.660156 -12.1875 10.457031 -12.238281 10.3125 -12.34375 C 10.164062 -12.445312 9.945312 -12.722656 9.65625 -13.171875 C 9.09375 -14.046875 8.238281 -14.484375 7.09375 -14.484375 C 5.789062 -14.484375 4.929688 -14.09375 4.515625 -13.3125 C 4.390625 -13.09375 4.328125 -12.851562 4.328125 -12.59375 C 4.328125 -12.34375 4.378906 -12.097656 4.484375 -11.859375 C 4.597656 -11.617188 4.796875 -11.375 5.078125 -11.125 C 5.691406 -10.613281 6.8125 -10.019531 8.4375 -9.34375 C 11.625 -8.03125 13.21875 -6.34375 13.21875 -4.28125 C 13.21875 -2.894531 12.65625 -1.765625 11.53125 -0.890625 C 10.40625 -0.015625 8.957031 0.421875 7.1875 0.421875 C 5.613281 0.421875 4.226562 -0.015625 3.03125 -0.890625 Z M 3.03125 -0.890625 "/></g></g></g></svg>