<svg xmlns="http://www.w3.org/2000/svg" xmlns:xlink="http://www.w3.org/1999/xlink" width="120" zoomAndPan="magnify" viewBox="0 0 90 44.999999" height="60" preserveAspectRatio="xMidYMid meet" version="1.2"><defs><clipPath id="44c3250df1"><path d="M 1 8 L 20.558594 8 L 20.558594 31 L 1 31 Z M 1 8 "/></clipPath><clipPath id="57e85e914a"><rect x="0" width="21" y="0" height="42"/></clipPath><clipPath id="6f6a21ca31"><path d="M 0.160156 14 L 11 14 L 11 23 L 0.160156 23 Z M 0.160156 14 "/></clipPath><clipPath id="93a429cc61"><rect x="0" width="52" y="0" height="30"/></clipPath><clipPath id="359e6c989c"><path d="M 52 4 L 56 4 L 56 7 L 52 7 Z M 52 4 "/></clipPath><clipPath id="a14f1667a3"><path d="M 55.203125 4.6875 L 54.808594 6.851562 L 52.175781 6.371094 L 52.574219 4.203125 Z M 55.203125 4.6875 "/></clipPath><clipPath id="56c0f34386"><path d="M 55.007812 5.769531 L 52.175781 6.371094 L 52.574219 4.203125 Z M 55.007812 5.769531 "/></clipPath><clipPath id="e5a7326b05"><path d="M 0.078125 0.078125 L 3.199219 0.078125 L 3.199219 2.480469 L 0.078125 2.480469 Z M 0.078125 0.078125 "/></clipPath><clipPath id="80da16ea68"><path d="M 3.203125 0.6875 L 2.808594 2.851562 L 0.175781 2.371094 L 0.574219 0.203125 Z M 3.203125 0.6875 "/></clipPath><clipPath id="e230483e27"><path d="M 3.007812 1.769531 L 0.175781 2.371094 L 0.574219 0.203125 Z M 3.007812 1.769531 "/></clipPath><clipPath id="73007dc322"><rect x="0" width="4" y="0" height="3"/></clipPath><clipPath id="fdeda9aa16"><path d="M 60 10 L 68.519531 10 L 68.519531 18 L 60 18 Z M 60 10 "/></clipPath><clipPath id="0e38d4c38b"><rect x="0" width="69" y="0" height="24"/></clipPath></defs><g id="b8301c4bbf"><g transform="matrix(1,0,0,1,2,0)"><g clip-path="url(#57e85e914a)"><g clip-rule="nonzero" clip-path="url(#44c3250df1)"><g style="fill:#000000;fill-opacity:1;"><g transform="translate(0.279509, 30.883111)"><path style="stroke:none" d="M 12.1875 -2.5 C 13.820312 -2.5 15.269531 -2.769531 16.53125 -3.3125 C 17.800781 -3.851562 18.773438 -4.492188 19.453125 -5.234375 C 19.703125 -5.234375 19.859375 -5.171875 19.921875 -5.046875 C 19.992188 -4.929688 20.007812 -4.773438 19.96875 -4.578125 C 19.894531 -4.191406 19.609375 -3.738281 19.109375 -3.21875 C 18.617188 -2.695312 17.957031 -2.191406 17.125 -1.703125 C 16.289062 -1.210938 15.320312 -0.804688 14.21875 -0.484375 C 13.125 -0.160156 11.914062 0 10.59375 0 C 8.882812 0 7.34375 -0.375 5.96875 -1.125 C 4.59375 -1.875 3.503906 -2.945312 2.703125 -4.34375 C 1.898438 -5.738281 1.5 -7.410156 1.5 -9.359375 C 1.5 -11.335938 1.785156 -13.132812 2.359375 -14.75 C 2.929688 -16.363281 3.726562 -17.75 4.75 -18.90625 C 5.769531 -20.070312 6.953125 -20.972656 8.296875 -21.609375 C 9.640625 -22.242188 11.09375 -22.5625 12.65625 -22.5625 C 13.925781 -22.5625 14.984375 -22.316406 15.828125 -21.828125 C 16.679688 -21.347656 17.320312 -20.722656 17.75 -19.953125 C 18.1875 -19.179688 18.40625 -18.347656 18.40625 -17.453125 C 18.40625 -16.503906 18.226562 -15.703125 17.875 -15.046875 C 17.53125 -14.398438 17.078125 -13.910156 16.515625 -13.578125 C 15.953125 -13.242188 15.359375 -13.078125 14.734375 -13.078125 C 14.253906 -13.078125 13.867188 -13.160156 13.578125 -13.328125 C 13.285156 -13.503906 13.078125 -13.675781 12.953125 -13.84375 C 12.835938 -14.019531 12.78125 -14.109375 12.78125 -14.109375 C 12.78125 -14.109375 12.894531 -14.171875 13.125 -14.296875 C 13.351562 -14.429688 13.613281 -14.65625 13.90625 -14.96875 C 14.195312 -15.289062 14.457031 -15.726562 14.6875 -16.28125 C 14.925781 -16.832031 15.046875 -17.53125 15.046875 -18.375 C 15.046875 -19.175781 14.816406 -19.796875 14.359375 -20.234375 C 13.910156 -20.679688 13.316406 -20.90625 12.578125 -20.90625 C 11.710938 -20.90625 10.867188 -20.613281 10.046875 -20.03125 C 9.222656 -19.445312 8.484375 -18.640625 7.828125 -17.609375 C 7.179688 -16.578125 6.660156 -15.382812 6.265625 -14.03125 C 5.878906 -12.675781 5.6875 -11.226562 5.6875 -9.6875 C 5.6875 -7.375 6.265625 -5.597656 7.421875 -4.359375 C 8.585938 -3.117188 10.175781 -2.5 12.1875 -2.5 Z M 12.1875 -2.5 "/></g></g></g></g></g><g transform="matrix(1,0,0,1,20,0)"><g clip-path="url(#93a429cc61)"><g clip-rule="nonzero" clip-path="url(#6f6a21ca31)"><g style="fill:#000000;fill-opacity:1;"><g transform="translate(0.268951, 22.313881)"><path style="stroke:none" d="M 2.828125 0.078125 C 2.140625 0.078125 1.59375 -0.164062 1.1875 -0.65625 C 0.78125 -1.15625 0.578125 -1.804688 0.578125 -2.609375 C 0.578125 -3.492188 0.78125 -4.328125 1.1875 -5.109375 C 1.59375 -5.898438 2.132812 -6.535156 2.8125 -7.015625 C 3.488281 -7.492188 4.207031 -7.734375 4.96875 -7.734375 C 5.21875 -7.734375 5.382812 -7.6875 5.46875 -7.59375 C 5.550781 -7.5 5.617188 -7.332031 5.671875 -7.09375 C 5.898438 -7.132812 6.140625 -7.15625 6.390625 -7.15625 C 6.929688 -7.15625 7.203125 -6.960938 7.203125 -6.578125 C 7.203125 -6.347656 7.117188 -5.796875 6.953125 -4.921875 C 6.703125 -3.660156 6.578125 -2.78125 6.578125 -2.28125 C 6.578125 -2.113281 6.617188 -1.976562 6.703125 -1.875 C 6.785156 -1.78125 6.894531 -1.734375 7.03125 -1.734375 C 7.238281 -1.734375 7.488281 -1.867188 7.78125 -2.140625 C 8.082031 -2.410156 8.488281 -2.847656 9 -3.453125 C 9.125 -3.609375 9.269531 -3.6875 9.4375 -3.6875 C 9.582031 -3.6875 9.695312 -3.617188 9.78125 -3.484375 C 9.863281 -3.359375 9.90625 -3.175781 9.90625 -2.9375 C 9.90625 -2.5 9.800781 -2.160156 9.59375 -1.921875 C 9.132812 -1.359375 8.648438 -0.882812 8.140625 -0.5 C 7.640625 -0.113281 7.148438 0.078125 6.671875 0.078125 C 6.316406 0.078125 5.984375 -0.0390625 5.671875 -0.28125 C 5.367188 -0.53125 5.144531 -0.875 5 -1.3125 C 4.414062 -0.382812 3.691406 0.078125 2.828125 0.078125 Z M 3.421875 -1.59375 C 3.660156 -1.59375 3.890625 -1.734375 4.109375 -2.015625 C 4.335938 -2.304688 4.5 -2.6875 4.59375 -3.15625 L 5.203125 -6.203125 C 4.742188 -6.191406 4.316406 -6.015625 3.921875 -5.671875 C 3.535156 -5.335938 3.222656 -4.894531 2.984375 -4.34375 C 2.753906 -3.789062 2.640625 -3.207031 2.640625 -2.59375 C 2.640625 -2.25 2.707031 -1.992188 2.84375 -1.828125 C 2.988281 -1.671875 3.179688 -1.59375 3.421875 -1.59375 Z M 3.421875 -1.59375 "/></g></g></g><g style="fill:#000000;fill-opacity:1;"><g transform="translate(8.04109, 22.313881)"><path style="stroke:none" d="M 1.96875 0.078125 C 1.550781 0.078125 1.253906 -0.140625 1.078125 -0.578125 C 0.910156 -1.015625 0.828125 -1.71875 0.828125 -2.6875 C 0.828125 -4.125 1.03125 -5.488281 1.4375 -6.78125 C 1.539062 -7.09375 1.703125 -7.320312 1.921875 -7.46875 C 2.148438 -7.625 2.46875 -7.703125 2.875 -7.703125 C 3.09375 -7.703125 3.242188 -7.671875 3.328125 -7.609375 C 3.421875 -7.554688 3.46875 -7.457031 3.46875 -7.3125 C 3.46875 -7.132812 3.382812 -6.734375 3.21875 -6.109375 C 3.113281 -5.671875 3.023438 -5.285156 2.953125 -4.953125 C 2.890625 -4.628906 2.835938 -4.222656 2.796875 -3.734375 C 3.160156 -4.679688 3.566406 -5.453125 4.015625 -6.046875 C 4.460938 -6.640625 4.90625 -7.0625 5.34375 -7.3125 C 5.78125 -7.570312 6.179688 -7.703125 6.546875 -7.703125 C 7.265625 -7.703125 7.625 -7.34375 7.625 -6.625 C 7.625 -6.488281 7.570312 -6.144531 7.46875 -5.59375 C 7.382812 -5.144531 7.34375 -4.867188 7.34375 -4.765625 C 7.34375 -4.378906 7.476562 -4.1875 7.75 -4.1875 C 8.0625 -4.1875 8.457031 -4.425781 8.9375 -4.90625 C 9.082031 -5.050781 9.234375 -5.125 9.390625 -5.125 C 9.535156 -5.125 9.648438 -5.0625 9.734375 -4.9375 C 9.816406 -4.8125 9.859375 -4.644531 9.859375 -4.4375 C 9.859375 -4.019531 9.742188 -3.695312 9.515625 -3.46875 C 9.210938 -3.144531 8.851562 -2.867188 8.4375 -2.640625 C 8.019531 -2.421875 7.582031 -2.3125 7.125 -2.3125 C 6.539062 -2.3125 6.097656 -2.457031 5.796875 -2.75 C 5.492188 -3.050781 5.34375 -3.457031 5.34375 -3.96875 C 5.34375 -4.132812 5.359375 -4.300781 5.390625 -4.46875 C 5.410156 -4.6875 5.421875 -4.832031 5.421875 -4.90625 C 5.421875 -5.082031 5.359375 -5.171875 5.234375 -5.171875 C 5.078125 -5.171875 4.863281 -4.984375 4.59375 -4.609375 C 4.320312 -4.242188 4.050781 -3.757812 3.78125 -3.15625 C 3.519531 -2.550781 3.304688 -1.910156 3.140625 -1.234375 C 3.015625 -0.722656 2.875 -0.375 2.71875 -0.1875 C 2.5625 -0.0078125 2.3125 0.078125 1.96875 0.078125 Z M 1.96875 0.078125 "/></g></g><g style="fill:#000000;fill-opacity:1;"><g transform="translate(15.565184, 22.313881)"><path style="stroke:none" d="M 9.21875 -5.078125 C 9.363281 -5.078125 9.472656 -5.003906 9.546875 -4.859375 C 9.628906 -4.710938 9.671875 -4.53125 9.671875 -4.3125 C 9.671875 -3.78125 9.507812 -3.46875 9.1875 -3.375 C 8.53125 -3.144531 7.804688 -3.007812 7.015625 -2.96875 C 6.796875 -2.050781 6.378906 -1.3125 5.765625 -0.75 C 5.148438 -0.195312 4.453125 0.078125 3.671875 0.078125 C 3.003906 0.078125 2.4375 -0.078125 1.96875 -0.390625 C 1.5 -0.710938 1.144531 -1.140625 0.90625 -1.671875 C 0.664062 -2.203125 0.546875 -2.773438 0.546875 -3.390625 C 0.546875 -4.222656 0.703125 -4.96875 1.015625 -5.625 C 1.335938 -6.28125 1.78125 -6.789062 2.34375 -7.15625 C 2.90625 -7.53125 3.53125 -7.71875 4.21875 -7.71875 C 5.050781 -7.71875 5.722656 -7.425781 6.234375 -6.84375 C 6.753906 -6.269531 7.054688 -5.5625 7.140625 -4.71875 C 7.660156 -4.75 8.28125 -4.859375 9 -5.046875 C 9.082031 -5.066406 9.15625 -5.078125 9.21875 -5.078125 Z M 3.796875 -1.671875 C 4.148438 -1.671875 4.457031 -1.8125 4.71875 -2.09375 C 4.976562 -2.382812 5.148438 -2.800781 5.234375 -3.34375 C 4.898438 -3.570312 4.640625 -3.875 4.453125 -4.25 C 4.273438 -4.625 4.1875 -5.019531 4.1875 -5.4375 C 4.1875 -5.613281 4.203125 -5.789062 4.234375 -5.96875 L 4.15625 -5.96875 C 3.707031 -5.96875 3.335938 -5.753906 3.046875 -5.328125 C 2.753906 -4.898438 2.609375 -4.300781 2.609375 -3.53125 C 2.609375 -2.925781 2.726562 -2.460938 2.96875 -2.140625 C 3.207031 -1.828125 3.484375 -1.671875 3.796875 -1.671875 Z M 3.796875 -1.671875 "/></g></g><g style="fill:#000000;fill-opacity:1;"><g transform="translate(23.023131, 22.313881)"><path style="stroke:none" d="M 7.0625 -3.6875 C 7.207031 -3.6875 7.316406 -3.617188 7.390625 -3.484375 C 7.472656 -3.359375 7.515625 -3.175781 7.515625 -2.9375 C 7.515625 -2.5 7.410156 -2.160156 7.203125 -1.921875 C 6.734375 -1.335938 6.21875 -0.859375 5.65625 -0.484375 C 5.101562 -0.109375 4.472656 0.078125 3.765625 0.078125 C 2.796875 0.078125 2.078125 -0.359375 1.609375 -1.234375 C 1.140625 -2.117188 0.90625 -3.257812 0.90625 -4.65625 C 0.90625 -6 1.078125 -7.53125 1.421875 -9.25 C 1.773438 -10.976562 2.289062 -12.457031 2.96875 -13.6875 C 3.644531 -14.925781 4.453125 -15.546875 5.390625 -15.546875 C 5.921875 -15.546875 6.335938 -15.296875 6.640625 -14.796875 C 6.941406 -14.304688 7.09375 -13.609375 7.09375 -12.703125 C 7.09375 -11.390625 6.726562 -9.863281 6 -8.125 C 5.269531 -6.394531 4.285156 -4.679688 3.046875 -2.984375 C 3.117188 -2.535156 3.242188 -2.210938 3.421875 -2.015625 C 3.597656 -1.828125 3.828125 -1.734375 4.109375 -1.734375 C 4.566406 -1.734375 4.960938 -1.863281 5.296875 -2.125 C 5.640625 -2.382812 6.078125 -2.828125 6.609375 -3.453125 C 6.742188 -3.609375 6.894531 -3.6875 7.0625 -3.6875 Z M 5.03125 -13.90625 C 4.769531 -13.90625 4.476562 -13.445312 4.15625 -12.53125 C 3.84375 -11.613281 3.5625 -10.476562 3.3125 -9.125 C 3.070312 -7.769531 2.941406 -6.46875 2.921875 -5.21875 C 3.703125 -6.507812 4.320312 -7.800781 4.78125 -9.09375 C 5.25 -10.394531 5.484375 -11.578125 5.484375 -12.640625 C 5.484375 -13.484375 5.332031 -13.90625 5.03125 -13.90625 Z M 5.03125 -13.90625 "/></g></g><g style="fill:#000000;fill-opacity:1;"><g transform="translate(28.414019, 22.313881)"><path style="stroke:none" d="M 2.953125 -8.796875 C 2.492188 -8.796875 2.148438 -8.898438 1.921875 -9.109375 C 1.691406 -9.328125 1.578125 -9.628906 1.578125 -10.015625 C 1.578125 -10.398438 1.726562 -10.722656 2.03125 -10.984375 C 2.332031 -11.242188 2.707031 -11.375 3.15625 -11.375 C 3.5625 -11.375 3.890625 -11.273438 4.140625 -11.078125 C 4.398438 -10.878906 4.53125 -10.597656 4.53125 -10.234375 C 4.53125 -9.796875 4.382812 -9.445312 4.09375 -9.1875 C 3.8125 -8.925781 3.429688 -8.796875 2.953125 -8.796875 Z M 2.828125 0.078125 C 2.109375 0.078125 1.585938 -0.171875 1.265625 -0.671875 C 0.941406 -1.179688 0.78125 -1.851562 0.78125 -2.6875 C 0.78125 -3.1875 0.84375 -3.820312 0.96875 -4.59375 C 1.09375 -5.375 1.253906 -6.101562 1.453125 -6.78125 C 1.554688 -7.132812 1.6875 -7.375 1.84375 -7.5 C 2.007812 -7.632812 2.273438 -7.703125 2.640625 -7.703125 C 3.203125 -7.703125 3.484375 -7.515625 3.484375 -7.140625 C 3.484375 -6.867188 3.378906 -6.226562 3.171875 -5.21875 C 2.910156 -4.007812 2.78125 -3.191406 2.78125 -2.765625 C 2.78125 -2.429688 2.820312 -2.175781 2.90625 -2 C 3 -1.820312 3.148438 -1.734375 3.359375 -1.734375 C 3.554688 -1.734375 3.800781 -1.867188 4.09375 -2.140625 C 4.394531 -2.421875 4.796875 -2.859375 5.296875 -3.453125 C 5.421875 -3.609375 5.566406 -3.6875 5.734375 -3.6875 C 5.878906 -3.6875 5.992188 -3.617188 6.078125 -3.484375 C 6.160156 -3.359375 6.203125 -3.175781 6.203125 -2.9375 C 6.203125 -2.5 6.097656 -2.160156 5.890625 -1.921875 C 4.796875 -0.585938 3.773438 0.078125 2.828125 0.078125 Z M 2.828125 0.078125 "/></g></g><g style="fill:#000000;fill-opacity:1;"><g transform="translate(32.48199, 22.313881)"><path style="stroke:none" d="M 1.96875 0.078125 C 1.550781 0.078125 1.253906 -0.140625 1.078125 -0.578125 C 0.910156 -1.015625 0.828125 -1.71875 0.828125 -2.6875 C 0.828125 -4.125 1.03125 -5.488281 1.4375 -6.78125 C 1.539062 -7.09375 1.703125 -7.320312 1.921875 -7.46875 C 2.148438 -7.625 2.46875 -7.703125 2.875 -7.703125 C 3.09375 -7.703125 3.242188 -7.671875 3.328125 -7.609375 C 3.421875 -7.554688 3.46875 -7.457031 3.46875 -7.3125 C 3.46875 -7.132812 3.382812 -6.734375 3.21875 -6.109375 C 3.113281 -5.671875 3.023438 -5.285156 2.953125 -4.953125 C 2.890625 -4.628906 2.835938 -4.222656 2.796875 -3.734375 C 3.160156 -4.679688 3.566406 -5.453125 4.015625 -6.046875 C 4.460938 -6.640625 4.90625 -7.0625 5.34375 -7.3125 C 5.78125 -7.570312 6.179688 -7.703125 6.546875 -7.703125 C 7.265625 -7.703125 7.625 -7.34375 7.625 -6.625 C 7.625 -6.195312 7.5 -5.421875 7.25 -4.296875 C 7.039062 -3.335938 6.9375 -2.703125 6.9375 -2.390625 C 6.9375 -1.953125 7.097656 -1.734375 7.421875 -1.734375 C 7.640625 -1.734375 7.898438 -1.867188 8.203125 -2.140625 C 8.503906 -2.410156 8.910156 -2.847656 9.421875 -3.453125 C 9.554688 -3.609375 9.707031 -3.6875 9.875 -3.6875 C 10.007812 -3.6875 10.117188 -3.617188 10.203125 -3.484375 C 10.285156 -3.359375 10.328125 -3.175781 10.328125 -2.9375 C 10.328125 -2.5 10.222656 -2.160156 10.015625 -1.921875 C 9.546875 -1.335938 9.035156 -0.859375 8.484375 -0.484375 C 7.941406 -0.109375 7.320312 0.078125 6.625 0.078125 C 6.0625 0.078125 5.632812 -0.0820312 5.34375 -0.40625 C 5.0625 -0.726562 4.921875 -1.195312 4.921875 -1.8125 C 4.921875 -2.125 5 -2.675781 5.15625 -3.46875 C 5.300781 -4.164062 5.375 -4.644531 5.375 -4.90625 C 5.375 -5.082031 5.3125 -5.171875 5.1875 -5.171875 C 5.039062 -5.171875 4.835938 -4.984375 4.578125 -4.609375 C 4.328125 -4.242188 4.066406 -3.757812 3.796875 -3.15625 C 3.523438 -2.550781 3.304688 -1.910156 3.140625 -1.234375 C 3.015625 -0.722656 2.875 -0.375 2.71875 -0.1875 C 2.5625 -0.0078125 2.3125 0.078125 1.96875 0.078125 Z M 1.96875 0.078125 "/></g></g><g style="fill:#000000;fill-opacity:1;"><g transform="translate(40.684077, 22.313881)"><path style="stroke:none" d="M 2.828125 0.078125 C 2.140625 0.078125 1.59375 -0.164062 1.1875 -0.65625 C 0.78125 -1.15625 0.578125 -1.804688 0.578125 -2.609375 C 0.578125 -3.492188 0.78125 -4.328125 1.1875 -5.109375 C 1.59375 -5.898438 2.132812 -6.535156 2.8125 -7.015625 C 3.488281 -7.492188 4.207031 -7.734375 4.96875 -7.734375 C 5.21875 -7.734375 5.382812 -7.6875 5.46875 -7.59375 C 5.550781 -7.5 5.617188 -7.332031 5.671875 -7.09375 C 5.898438 -7.132812 6.140625 -7.15625 6.390625 -7.15625 C 6.929688 -7.15625 7.203125 -6.960938 7.203125 -6.578125 C 7.203125 -6.347656 7.117188 -5.796875 6.953125 -4.921875 C 6.703125 -3.660156 6.578125 -2.78125 6.578125 -2.28125 C 6.578125 -2.113281 6.617188 -1.976562 6.703125 -1.875 C 6.785156 -1.78125 6.894531 -1.734375 7.03125 -1.734375 C 7.238281 -1.734375 7.488281 -1.867188 7.78125 -2.140625 C 8.082031 -2.410156 8.488281 -2.847656 9 -3.453125 C 9.125 -3.609375 9.269531 -3.6875 9.4375 -3.6875 C 9.582031 -3.6875 9.695312 -3.617188 9.78125 -3.484375 C 9.863281 -3.359375 9.90625 -3.175781 9.90625 -2.9375 C 9.90625 -2.5 9.800781 -2.160156 9.59375 -1.921875 C 9.132812 -1.359375 8.648438 -0.882812 8.140625 -0.5 C 7.640625 -0.113281 7.148438 0.078125 6.671875 0.078125 C 6.316406 0.078125 5.984375 -0.0390625 5.671875 -0.28125 C 5.367188 -0.53125 5.144531 -0.875 5 -1.3125 C 4.414062 -0.382812 3.691406 0.078125 2.828125 0.078125 Z M 3.421875 -1.59375 C 3.660156 -1.59375 3.890625 -1.734375 4.109375 -2.015625 C 4.335938 -2.304688 4.5 -2.6875 4.59375 -3.15625 L 5.203125 -6.203125 C 4.742188 -6.191406 4.316406 -6.015625 3.921875 -5.671875 C 3.535156 -5.335938 3.222656 -4.894531 2.984375 -4.34375 C 2.753906 -3.789062 2.640625 -3.207031 2.640625 -2.59375 C 2.640625 -2.25 2.707031 -1.992188 2.84375 -1.828125 C 2.988281 -1.671875 3.179688 -1.59375 3.421875 -1.59375 Z M 3.421875 -1.59375 "/></g></g></g></g><path style="fill:none;stroke-width:2;stroke-linecap:butt;stroke-linejoin:miter;stroke:#000000;stroke-opacity:1;stroke-miterlimit:4;" d="M -0.00179972 0.997696 L 8.023411 0.998686 " transform="matrix(0.131331,-0.738412,0.738412,0.131331,50.85337,11.793424)"/><g clip-rule="nonzero" clip-path="url(#359e6c989c)"><g clip-rule="nonzero" clip-path="url(#a14f1667a3)"><g clip-rule="nonzero" clip-path="url(#56c0f34386)"><g transform="matrix(1,0,0,1,52,4)"><g clip-path="url(#73007dc322)"><g clip-rule="nonzero" clip-path="url(#e5a7326b05)"><g clip-rule="nonzero" clip-path="url(#80da16ea68)"><g clip-rule="nonzero" clip-path="url(#e230483e27)"><path style=" stroke:none;fill-rule:nonzero;fill:#ff3131;fill-opacity:1;" d="M 3.203125 0.6875 L 2.808594 2.851562 L 0.175781 2.371094 L 0.574219 0.203125 Z M 3.203125 0.6875 "/></g></g></g></g></g></g></g></g><g transform="matrix(1,0,0,1,21,18)"><g clip-path="url(#0e38d4c38b)"><g style="fill:#000000;fill-opacity:1;"><g transform="translate(0.83486, 17.058461)"><path style="stroke:none" d="M 11.46875 -2.84375 C 11.582031 -2.84375 11.671875 -2.785156 11.734375 -2.671875 C 11.796875 -2.566406 11.828125 -2.4375 11.828125 -2.28125 C 11.828125 -2.082031 11.796875 -1.925781 11.734375 -1.8125 C 11.679688 -1.695312 11.585938 -1.597656 11.453125 -1.515625 C 10.953125 -1.179688 10.148438 -0.632812 9.046875 0.125 C 8.703125 1.90625 8.265625 3.300781 7.734375 4.3125 C 7.203125 5.332031 6.53125 5.84375 5.71875 5.84375 C 5.28125 5.84375 4.925781 5.707031 4.65625 5.4375 C 4.382812 5.175781 4.25 4.828125 4.25 4.390625 C 4.25 3.984375 4.335938 3.570312 4.515625 3.15625 C 4.691406 2.75 5.023438 2.273438 5.515625 1.734375 C 6.015625 1.191406 6.710938 0.578125 7.609375 -0.109375 L 7.65625 -0.359375 C 6.976562 -0.078125 6.3125 0.0625 5.65625 0.0625 C 4.695312 0.0625 3.851562 -0.117188 3.125 -0.484375 C 2.394531 -0.859375 1.828125 -1.390625 1.421875 -2.078125 C 1.023438 -2.765625 0.828125 -3.5625 0.828125 -4.46875 C 0.828125 -5.738281 1.066406 -6.859375 1.546875 -7.828125 C 2.023438 -8.804688 2.6875 -9.5625 3.53125 -10.09375 C 4.375 -10.632812 5.316406 -10.90625 6.359375 -10.90625 C 7.367188 -10.90625 8.125 -10.671875 8.625 -10.203125 C 9.125 -9.734375 9.375 -9.113281 9.375 -8.34375 C 9.375 -7.84375 9.28125 -7.4375 9.09375 -7.125 C 8.914062 -6.820312 8.65625 -6.671875 8.3125 -6.671875 C 8.070312 -6.671875 7.878906 -6.726562 7.734375 -6.84375 C 7.597656 -6.957031 7.53125 -7.109375 7.53125 -7.296875 C 7.53125 -7.390625 7.550781 -7.535156 7.59375 -7.734375 C 7.644531 -7.972656 7.671875 -8.164062 7.671875 -8.3125 C 7.671875 -8.664062 7.5625 -8.941406 7.34375 -9.140625 C 7.125 -9.335938 6.753906 -9.4375 6.234375 -9.4375 C 5.609375 -9.4375 5.023438 -9.253906 4.484375 -8.890625 C 3.953125 -8.535156 3.523438 -8 3.203125 -7.28125 C 2.878906 -6.570312 2.71875 -5.710938 2.71875 -4.703125 C 2.71875 -3.671875 2.992188 -2.875 3.546875 -2.3125 C 4.109375 -1.757812 4.925781 -1.484375 6 -1.484375 C 6.582031 -1.484375 7.195312 -1.613281 7.84375 -1.875 L 8.03125 -3.453125 L 6.71875 -3.453125 C 6.476562 -3.453125 6.289062 -3.507812 6.15625 -3.625 C 6.03125 -3.738281 5.96875 -3.925781 5.96875 -4.1875 C 5.96875 -4.425781 6.03125 -4.613281 6.15625 -4.75 C 6.289062 -4.894531 6.460938 -4.96875 6.671875 -4.96875 L 9.078125 -4.96875 C 9.265625 -4.96875 9.421875 -4.90625 9.546875 -4.78125 C 9.671875 -4.65625 9.722656 -4.476562 9.703125 -4.25 C 9.671875 -3.96875 9.582031 -3.34375 9.4375 -2.375 L 9.296875 -1.40625 C 9.984375 -1.914062 10.609375 -2.359375 11.171875 -2.734375 C 11.285156 -2.804688 11.382812 -2.84375 11.46875 -2.84375 Z M 5.859375 4.609375 C 6.085938 4.609375 6.332031 4.351562 6.59375 3.84375 C 6.863281 3.34375 7.113281 2.53125 7.34375 1.40625 C 6.6875 1.957031 6.210938 2.457031 5.921875 2.90625 C 5.640625 3.363281 5.5 3.765625 5.5 4.109375 C 5.5 4.441406 5.617188 4.609375 5.859375 4.609375 Z M 5.859375 4.609375 "/></g></g><g style="fill:#000000;fill-opacity:1;"><g transform="translate(11.260853, 17.058461)"><path style="stroke:none" d="M 7.171875 -3.953125 C 7.285156 -3.953125 7.367188 -3.894531 7.421875 -3.78125 C 7.484375 -3.664062 7.515625 -3.523438 7.515625 -3.359375 C 7.515625 -2.941406 7.394531 -2.695312 7.15625 -2.625 C 6.632812 -2.445312 6.066406 -2.34375 5.453125 -2.3125 C 5.285156 -1.59375 4.960938 -1.015625 4.484375 -0.578125 C 4.003906 -0.148438 3.460938 0.0625 2.859375 0.0625 C 2.335938 0.0625 1.894531 -0.0625 1.53125 -0.3125 C 1.164062 -0.5625 0.890625 -0.890625 0.703125 -1.296875 C 0.515625 -1.710938 0.421875 -2.160156 0.421875 -2.640625 C 0.421875 -3.285156 0.546875 -3.863281 0.796875 -4.375 C 1.046875 -4.882812 1.390625 -5.28125 1.828125 -5.5625 C 2.265625 -5.851562 2.75 -6 3.28125 -6 C 3.925781 -6 4.445312 -5.773438 4.84375 -5.328125 C 5.25 -4.878906 5.488281 -4.328125 5.5625 -3.671875 C 5.957031 -3.691406 6.4375 -3.773438 7 -3.921875 C 7.0625 -3.941406 7.117188 -3.953125 7.171875 -3.953125 Z M 2.953125 -1.296875 C 3.234375 -1.296875 3.472656 -1.40625 3.671875 -1.625 C 3.867188 -1.851562 4.003906 -2.175781 4.078125 -2.59375 C 3.804688 -2.78125 3.597656 -3.015625 3.453125 -3.296875 C 3.316406 -3.585938 3.25 -3.898438 3.25 -4.234375 C 3.25 -4.367188 3.265625 -4.503906 3.296875 -4.640625 L 3.234375 -4.640625 C 2.890625 -4.640625 2.601562 -4.472656 2.375 -4.140625 C 2.144531 -3.816406 2.03125 -3.351562 2.03125 -2.75 C 2.03125 -2.28125 2.117188 -1.921875 2.296875 -1.671875 C 2.484375 -1.421875 2.703125 -1.296875 2.953125 -1.296875 Z M 2.953125 -1.296875 "/></g></g><g style="fill:#000000;fill-opacity:1;"><g transform="translate(17.058785, 17.058461)"><path style="stroke:none" d="M 5.484375 -2.875 C 5.597656 -2.875 5.6875 -2.820312 5.75 -2.71875 C 5.8125 -2.613281 5.84375 -2.46875 5.84375 -2.28125 C 5.84375 -1.945312 5.765625 -1.679688 5.609375 -1.484375 C 5.234375 -1.035156 4.828125 -0.664062 4.390625 -0.375 C 3.960938 -0.0820312 3.476562 0.0625 2.9375 0.0625 C 2.175781 0.0625 1.613281 -0.28125 1.25 -0.96875 C 0.882812 -1.65625 0.703125 -2.539062 0.703125 -3.625 C 0.703125 -4.664062 0.835938 -5.851562 1.109375 -7.1875 C 1.378906 -8.53125 1.773438 -9.679688 2.296875 -10.640625 C 2.828125 -11.609375 3.457031 -12.09375 4.1875 -12.09375 C 4.601562 -12.09375 4.925781 -11.898438 5.15625 -11.515625 C 5.394531 -11.128906 5.515625 -10.582031 5.515625 -9.875 C 5.515625 -8.851562 5.226562 -7.671875 4.65625 -6.328125 C 4.09375 -4.984375 3.328125 -3.648438 2.359375 -2.328125 C 2.421875 -1.972656 2.519531 -1.71875 2.65625 -1.5625 C 2.800781 -1.414062 2.984375 -1.34375 3.203125 -1.34375 C 3.554688 -1.34375 3.863281 -1.441406 4.125 -1.640625 C 4.394531 -1.847656 4.734375 -2.195312 5.140625 -2.6875 C 5.242188 -2.8125 5.359375 -2.875 5.484375 -2.875 Z M 3.90625 -10.8125 C 3.707031 -10.8125 3.484375 -10.457031 3.234375 -9.75 C 2.992188 -9.039062 2.773438 -8.15625 2.578125 -7.09375 C 2.390625 -6.039062 2.289062 -5.03125 2.28125 -4.0625 C 2.882812 -5.0625 3.363281 -6.066406 3.71875 -7.078125 C 4.082031 -8.085938 4.265625 -9.007812 4.265625 -9.84375 C 4.265625 -10.488281 4.144531 -10.8125 3.90625 -10.8125 Z M 3.90625 -10.8125 "/></g></g><g style="fill:#000000;fill-opacity:1;"><g transform="translate(21.249751, 17.058461)"><path style="stroke:none" d="M 5.75 -3.59375 C 5.988281 -3.59375 6.109375 -3.414062 6.109375 -3.0625 C 6.109375 -2.382812 5.578125 -2.046875 4.515625 -2.046875 C 4.304688 -2.046875 4.007812 -2.082031 3.625 -2.15625 C 3.738281 -1.625 3.832031 -1.035156 3.90625 -0.390625 C 3.976562 0.253906 4.015625 0.785156 4.015625 1.203125 C 4.015625 2.128906 3.863281 2.835938 3.5625 3.328125 C 3.257812 3.816406 2.863281 4.0625 2.375 4.0625 C 1.757812 4.0625 1.320312 3.625 1.0625 2.75 C 0.800781 1.875 0.671875 0.554688 0.671875 -1.203125 C 0.671875 -2.847656 0.847656 -4.515625 1.203125 -6.203125 C 1.554688 -7.898438 2.039062 -9.304688 2.65625 -10.421875 C 3.28125 -11.535156 3.96875 -12.09375 4.71875 -12.09375 C 5.125 -12.09375 5.4375 -11.910156 5.65625 -11.546875 C 5.882812 -11.179688 6 -10.695312 6 -10.09375 C 6 -8.082031 4.796875 -5.890625 2.390625 -3.515625 C 2.304688 -2.671875 2.265625 -1.929688 2.265625 -1.296875 C 2.265625 -0.410156 2.289062 0.492188 2.34375 1.421875 C 2.40625 2.347656 2.507812 2.8125 2.65625 2.8125 C 2.90625 2.8125 3.03125 2.367188 3.03125 1.484375 C 3.03125 0.804688 2.984375 0.15625 2.890625 -0.46875 C 2.804688 -1.09375 2.6875 -1.75 2.53125 -2.4375 C 2.519531 -2.550781 2.554688 -2.691406 2.640625 -2.859375 C 2.722656 -3.035156 2.820312 -3.1875 2.9375 -3.3125 C 3.0625 -3.445312 3.171875 -3.515625 3.265625 -3.515625 C 3.441406 -3.515625 3.648438 -3.503906 3.890625 -3.484375 C 3.960938 -3.472656 4.050781 -3.46875 4.15625 -3.46875 C 4.5 -3.46875 4.878906 -3.5 5.296875 -3.5625 C 5.367188 -3.570312 5.441406 -3.578125 5.515625 -3.578125 C 5.585938 -3.585938 5.664062 -3.59375 5.75 -3.59375 Z M 4.453125 -10.8125 C 4.296875 -10.8125 4.101562 -10.550781 3.875 -10.03125 C 3.644531 -9.507812 3.421875 -8.816406 3.203125 -7.953125 C 2.984375 -7.085938 2.789062 -6.175781 2.625 -5.21875 C 3.3125 -6 3.835938 -6.8125 4.203125 -7.65625 C 4.578125 -8.5 4.765625 -9.289062 4.765625 -10.03125 C 4.765625 -10.550781 4.660156 -10.8125 4.453125 -10.8125 Z M 4.453125 -10.8125 "/></g></g><g style="fill:#000000;fill-opacity:1;"><g transform="translate(26.019224, 17.058461)"><path style="stroke:none" d=""/></g></g><g style="fill:#000000;fill-opacity:1;"><g transform="translate(29.425991, 17.058461)"><path style="stroke:none" d="M 12.53125 -2.875 C 12.632812 -2.875 12.71875 -2.820312 12.78125 -2.71875 C 12.851562 -2.613281 12.890625 -2.46875 12.890625 -2.28125 C 12.890625 -1.945312 12.804688 -1.679688 12.640625 -1.484375 C 11.796875 -0.453125 10.890625 0.0625 9.921875 0.0625 C 9.097656 0.0625 8.4375 -0.253906 7.9375 -0.890625 C 7.4375 -1.535156 7.1875 -2.460938 7.1875 -3.671875 C 7.1875 -3.960938 7.203125 -4.253906 7.234375 -4.546875 C 6.660156 -4.441406 6.039062 -4.363281 5.375 -4.3125 C 4.925781 -4.269531 4.625 -4.25 4.46875 -4.25 C 4.289062 -3.375 4.046875 -2.300781 3.734375 -1.03125 C 3.554688 -0.28125 3.21875 0.09375 2.71875 0.09375 C 2.164062 0.09375 1.890625 -0.15625 1.890625 -0.65625 C 1.890625 -0.769531 1.910156 -0.925781 1.953125 -1.125 C 2.242188 -2.289062 2.476562 -3.285156 2.65625 -4.109375 L 2.03125 -4.078125 C 1.75 -4.078125 1.539062 -4.125 1.40625 -4.21875 C 1.28125 -4.320312 1.21875 -4.484375 1.21875 -4.703125 C 1.21875 -4.984375 1.296875 -5.191406 1.453125 -5.328125 C 1.617188 -5.460938 1.894531 -5.539062 2.28125 -5.5625 L 2.953125 -5.578125 C 3.179688 -6.785156 3.296875 -7.707031 3.296875 -8.34375 C 3.296875 -8.75 3.234375 -9.023438 3.109375 -9.171875 C 2.992188 -9.316406 2.835938 -9.390625 2.640625 -9.390625 C 2.035156 -9.390625 1.359375 -8.882812 0.609375 -7.875 C 0.492188 -7.738281 0.367188 -7.671875 0.234375 -7.671875 C 0.109375 -7.671875 0.00390625 -7.722656 -0.078125 -7.828125 C -0.160156 -7.941406 -0.203125 -8.082031 -0.203125 -8.25 C -0.203125 -8.519531 -0.0976562 -8.804688 0.109375 -9.109375 C 0.492188 -9.628906 0.972656 -10.054688 1.546875 -10.390625 C 2.117188 -10.734375 2.703125 -10.90625 3.296875 -10.90625 C 3.847656 -10.90625 4.273438 -10.710938 4.578125 -10.328125 C 4.890625 -9.953125 5.046875 -9.359375 5.046875 -8.546875 C 5.046875 -7.835938 4.941406 -6.875 4.734375 -5.65625 L 6 -5.71875 C 6.53125 -5.75 6.988281 -5.789062 7.375 -5.84375 C 7.53125 -6.789062 7.765625 -7.675781 8.078125 -8.5 C 8.398438 -9.320312 8.796875 -9.988281 9.265625 -10.5 C 9.742188 -11.019531 10.273438 -11.28125 10.859375 -11.28125 C 11.285156 -11.28125 11.617188 -11.109375 11.859375 -10.765625 C 12.109375 -10.429688 12.234375 -9.988281 12.234375 -9.4375 C 12.234375 -7.3125 11.148438 -5.835938 8.984375 -5.015625 C 8.960938 -4.671875 8.953125 -4.316406 8.953125 -3.953125 C 8.953125 -3.046875 9.0625 -2.40625 9.28125 -2.03125 C 9.507812 -1.65625 9.820312 -1.46875 10.21875 -1.46875 C 10.570312 -1.46875 10.894531 -1.554688 11.1875 -1.734375 C 11.476562 -1.921875 11.804688 -2.238281 12.171875 -2.6875 C 12.273438 -2.8125 12.394531 -2.875 12.53125 -2.875 Z M 10.78125 -10.15625 C 10.59375 -10.15625 10.394531 -9.984375 10.1875 -9.640625 C 9.976562 -9.296875 9.78125 -8.828125 9.59375 -8.234375 C 9.40625 -7.648438 9.253906 -7.003906 9.140625 -6.296875 C 9.828125 -6.578125 10.332031 -6.976562 10.65625 -7.5 C 10.988281 -8.03125 11.15625 -8.707031 11.15625 -9.53125 C 11.15625 -9.726562 11.117188 -9.878906 11.046875 -9.984375 C 10.972656 -10.097656 10.882812 -10.15625 10.78125 -10.15625 Z M 10.78125 -10.15625 "/></g></g><g style="fill:#000000;fill-opacity:1;"><g transform="translate(40.649039, 17.058461)"><path style="stroke:none" d="M 7.171875 -3.953125 C 7.285156 -3.953125 7.367188 -3.894531 7.421875 -3.78125 C 7.484375 -3.664062 7.515625 -3.523438 7.515625 -3.359375 C 7.515625 -2.941406 7.394531 -2.695312 7.15625 -2.625 C 6.632812 -2.445312 6.066406 -2.34375 5.453125 -2.3125 C 5.285156 -1.59375 4.960938 -1.015625 4.484375 -0.578125 C 4.003906 -0.148438 3.460938 0.0625 2.859375 0.0625 C 2.335938 0.0625 1.894531 -0.0625 1.53125 -0.3125 C 1.164062 -0.5625 0.890625 -0.890625 0.703125 -1.296875 C 0.515625 -1.710938 0.421875 -2.160156 0.421875 -2.640625 C 0.421875 -3.285156 0.546875 -3.863281 0.796875 -4.375 C 1.046875 -4.882812 1.390625 -5.28125 1.828125 -5.5625 C 2.265625 -5.851562 2.75 -6 3.28125 -6 C 3.925781 -6 4.445312 -5.773438 4.84375 -5.328125 C 5.25 -4.878906 5.488281 -4.328125 5.5625 -3.671875 C 5.957031 -3.691406 6.4375 -3.773438 7 -3.921875 C 7.0625 -3.941406 7.117188 -3.953125 7.171875 -3.953125 Z M 2.953125 -1.296875 C 3.234375 -1.296875 3.472656 -1.40625 3.671875 -1.625 C 3.867188 -1.851562 4.003906 -2.175781 4.078125 -2.59375 C 3.804688 -2.78125 3.597656 -3.015625 3.453125 -3.296875 C 3.316406 -3.585938 3.25 -3.898438 3.25 -4.234375 C 3.25 -4.367188 3.265625 -4.503906 3.296875 -4.640625 L 3.234375 -4.640625 C 2.890625 -4.640625 2.601562 -4.472656 2.375 -4.140625 C 2.144531 -3.816406 2.03125 -3.351562 2.03125 -2.75 C 2.03125 -2.28125 2.117188 -1.921875 2.296875 -1.671875 C 2.484375 -1.421875 2.703125 -1.296875 2.953125 -1.296875 Z M 2.953125 -1.296875 "/></g></g><g style="fill:#000000;fill-opacity:1;"><g transform="translate(46.446971, 17.058461)"><path style="stroke:none" d="M 1.53125 0.0625 C 1.207031 0.0625 0.976562 -0.109375 0.84375 -0.453125 C 0.707031 -0.796875 0.640625 -1.34375 0.640625 -2.09375 C 0.640625 -3.207031 0.800781 -4.265625 1.125 -5.265625 C 1.195312 -5.515625 1.320312 -5.695312 1.5 -5.8125 C 1.675781 -5.9375 1.921875 -6 2.234375 -6 C 2.410156 -6 2.53125 -5.972656 2.59375 -5.921875 C 2.664062 -5.878906 2.703125 -5.800781 2.703125 -5.6875 C 2.703125 -5.550781 2.632812 -5.242188 2.5 -4.765625 C 2.414062 -4.421875 2.347656 -4.117188 2.296875 -3.859375 C 2.242188 -3.609375 2.203125 -3.296875 2.171875 -2.921875 C 2.398438 -3.585938 2.675781 -4.148438 3 -4.609375 C 3.320312 -5.078125 3.648438 -5.425781 3.984375 -5.65625 C 4.328125 -5.882812 4.648438 -6 4.953125 -6 C 5.253906 -6 5.46875 -5.925781 5.59375 -5.78125 C 5.71875 -5.644531 5.78125 -5.4375 5.78125 -5.15625 C 5.78125 -4.882812 5.695312 -4.390625 5.53125 -3.671875 C 5.457031 -3.359375 5.410156 -3.125 5.390625 -2.96875 C 5.816406 -4.019531 6.289062 -4.785156 6.8125 -5.265625 C 7.332031 -5.753906 7.820312 -6 8.28125 -6 C 8.84375 -6 9.125 -5.71875 9.125 -5.15625 C 9.125 -4.820312 9.023438 -4.21875 8.828125 -3.34375 C 8.671875 -2.59375 8.59375 -2.097656 8.59375 -1.859375 C 8.59375 -1.515625 8.71875 -1.34375 8.96875 -1.34375 C 9.132812 -1.34375 9.332031 -1.445312 9.5625 -1.65625 C 9.800781 -1.875 10.117188 -2.21875 10.515625 -2.6875 C 10.617188 -2.8125 10.734375 -2.875 10.859375 -2.875 C 10.972656 -2.875 11.0625 -2.820312 11.125 -2.71875 C 11.1875 -2.613281 11.21875 -2.46875 11.21875 -2.28125 C 11.21875 -1.945312 11.140625 -1.679688 10.984375 -1.484375 C 10.609375 -1.035156 10.207031 -0.664062 9.78125 -0.375 C 9.363281 -0.0820312 8.882812 0.0625 8.34375 0.0625 C 7.90625 0.0625 7.570312 -0.0625 7.34375 -0.3125 C 7.125 -0.5625 7.015625 -0.929688 7.015625 -1.421875 C 7.015625 -1.660156 7.078125 -2.085938 7.203125 -2.703125 C 7.316406 -3.242188 7.375 -3.613281 7.375 -3.8125 C 7.375 -3.957031 7.328125 -4.03125 7.234375 -4.03125 C 7.117188 -4.03125 6.957031 -3.882812 6.75 -3.59375 C 6.539062 -3.300781 6.332031 -2.921875 6.125 -2.453125 C 5.925781 -1.984375 5.757812 -1.488281 5.625 -0.96875 C 5.53125 -0.550781 5.421875 -0.273438 5.296875 -0.140625 C 5.179688 -0.00390625 4.984375 0.0625 4.703125 0.0625 C 4.421875 0.0625 4.207031 -0.0703125 4.0625 -0.34375 C 3.925781 -0.613281 3.859375 -0.941406 3.859375 -1.328125 C 3.859375 -1.648438 3.898438 -2.117188 3.984375 -2.734375 C 4.054688 -3.285156 4.09375 -3.644531 4.09375 -3.8125 C 4.09375 -3.957031 4.046875 -4.03125 3.953125 -4.03125 C 3.816406 -4.03125 3.648438 -3.875 3.453125 -3.5625 C 3.253906 -3.25 3.0625 -2.851562 2.875 -2.375 C 2.695312 -1.894531 2.550781 -1.425781 2.4375 -0.96875 C 2.34375 -0.5625 2.234375 -0.285156 2.109375 -0.140625 C 1.984375 -0.00390625 1.789062 0.0625 1.53125 0.0625 Z M 1.53125 0.0625 "/></g></g><g style="fill:#000000;fill-opacity:1;"><g transform="translate(56.01163, 17.058461)"><path style="stroke:none" d="M 6.359375 -2.875 C 6.460938 -2.875 6.546875 -2.820312 6.609375 -2.71875 C 6.679688 -2.613281 6.71875 -2.46875 6.71875 -2.28125 C 6.71875 -1.945312 6.632812 -1.679688 6.46875 -1.484375 C 6.15625 -1.097656 5.707031 -0.742188 5.125 -0.421875 C 4.539062 -0.0976562 3.921875 0.0625 3.265625 0.0625 C 2.367188 0.0625 1.671875 -0.179688 1.171875 -0.671875 C 0.671875 -1.160156 0.421875 -1.828125 0.421875 -2.671875 C 0.421875 -3.265625 0.546875 -3.816406 0.796875 -4.328125 C 1.046875 -4.835938 1.390625 -5.242188 1.828125 -5.546875 C 2.273438 -5.847656 2.773438 -6 3.328125 -6 C 3.828125 -6 4.226562 -5.847656 4.53125 -5.546875 C 4.832031 -5.253906 4.984375 -4.851562 4.984375 -4.34375 C 4.984375 -3.75 4.769531 -3.238281 4.34375 -2.8125 C 3.914062 -2.394531 3.195312 -2.0625 2.1875 -1.8125 C 2.394531 -1.414062 2.800781 -1.21875 3.40625 -1.21875 C 3.789062 -1.21875 4.226562 -1.351562 4.71875 -1.625 C 5.21875 -1.894531 5.644531 -2.25 6 -2.6875 C 6.101562 -2.8125 6.222656 -2.875 6.359375 -2.875 Z M 3.109375 -4.734375 C 2.796875 -4.734375 2.53125 -4.546875 2.3125 -4.171875 C 2.09375 -3.804688 1.984375 -3.363281 1.984375 -2.84375 L 1.984375 -2.8125 C 2.484375 -2.9375 2.878906 -3.117188 3.171875 -3.359375 C 3.460938 -3.597656 3.609375 -3.875 3.609375 -4.1875 C 3.609375 -4.351562 3.5625 -4.484375 3.46875 -4.578125 C 3.382812 -4.679688 3.265625 -4.734375 3.109375 -4.734375 Z M 3.109375 -4.734375 "/></g></g><g clip-rule="nonzero" clip-path="url(#fdeda9aa16)"><g style="fill:#000000;fill-opacity:1;"><g transform="translate(61.06393, 17.058461)"><path style="stroke:none" d="M 3.015625 0.34375 C 2.566406 0.34375 2.222656 0.238281 1.984375 0.03125 C 1.753906 -0.164062 1.640625 -0.394531 1.640625 -0.65625 C 1.640625 -0.875 1.71875 -1.066406 1.875 -1.234375 C 2.039062 -1.398438 2.28125 -1.484375 2.59375 -1.484375 C 2.707031 -1.484375 2.835938 -1.472656 2.984375 -1.453125 C 3.140625 -1.429688 3.253906 -1.414062 3.328125 -1.40625 C 3.316406 -1.625 3.265625 -1.832031 3.171875 -2.03125 C 3.085938 -2.226562 2.976562 -2.414062 2.84375 -2.59375 C 2.707031 -2.78125 2.578125 -2.945312 2.453125 -3.09375 C 2.191406 -2.582031 1.925781 -2.160156 1.65625 -1.828125 C 1.394531 -1.492188 1.113281 -1.175781 0.8125 -0.875 C 0.65625 -0.71875 0.492188 -0.640625 0.328125 -0.640625 C 0.179688 -0.640625 0.0664062 -0.6875 -0.015625 -0.78125 C -0.0976562 -0.882812 -0.140625 -1.007812 -0.140625 -1.15625 C -0.140625 -1.332031 -0.0820312 -1.492188 0.03125 -1.640625 L 0.203125 -1.84375 C 0.671875 -2.425781 1.023438 -2.90625 1.265625 -3.28125 C 1.410156 -3.53125 1.582031 -3.863281 1.78125 -4.28125 C 1.976562 -4.695312 2.171875 -5.125 2.359375 -5.5625 C 2.523438 -5.945312 2.863281 -6.140625 3.375 -6.140625 C 3.613281 -6.140625 3.78125 -6.113281 3.875 -6.0625 C 3.976562 -6.019531 4.03125 -5.953125 4.03125 -5.859375 C 4.03125 -5.804688 4.007812 -5.722656 3.96875 -5.609375 C 3.9375 -5.503906 3.890625 -5.394531 3.828125 -5.28125 C 3.671875 -4.976562 3.59375 -4.71875 3.59375 -4.5 C 3.59375 -4.375 3.640625 -4.234375 3.734375 -4.078125 C 3.828125 -3.921875 3.96875 -3.726562 4.15625 -3.5 C 4.425781 -3.132812 4.628906 -2.828125 4.765625 -2.578125 C 4.910156 -2.328125 4.984375 -2.050781 4.984375 -1.75 C 4.984375 -1.664062 4.976562 -1.546875 4.96875 -1.390625 C 5.382812 -1.554688 5.875 -1.988281 6.4375 -2.6875 C 6.539062 -2.8125 6.660156 -2.875 6.796875 -2.875 C 6.898438 -2.875 6.984375 -2.820312 7.046875 -2.71875 C 7.117188 -2.613281 7.15625 -2.46875 7.15625 -2.28125 C 7.15625 -1.957031 7.070312 -1.691406 6.90625 -1.484375 C 6.476562 -0.953125 6.066406 -0.585938 5.671875 -0.390625 C 5.285156 -0.203125 4.804688 -0.101562 4.234375 -0.09375 C 3.890625 0.195312 3.484375 0.34375 3.015625 0.34375 Z M 3.015625 0.34375 "/></g></g></g></g></g></g></svg>